<svg xmlns="http://www.w3.org/2000/svg" viewBox="0 0 500 500"><g id="freepik--Floor--inject-4"><path d="M98.29,381.75c83.79,43.77,219.63,43.77,303.42,0s83.78-114.74,0-158.51-219.63-43.77-303.42,0S14.51,338,98.29,381.75Z" style="fill:#f5f5f5"></path></g><g id="freepik--Shadow--inject-4"><path d="M403.26,347.9a19.27,19.27,0,0,1-14.62,0c-4-1.93-4-5,0-7a19.18,19.18,0,0,1,14.62,0C407.3,342.85,407.3,346,403.26,347.9Z" style="fill:#e0e0e0"></path><path d="M82.52,342.34a19.56,19.56,0,0,0,14.88,0c4.11-2,4.11-5.14,0-7.1a19.66,19.66,0,0,0-14.88,0C78.41,337.2,78.41,340.38,82.52,342.34Z" style="fill:#e0e0e0"></path></g><g id="freepik--Plant--inject-4"><path d="M334.79,320c2.5.32,5.39-.54,6.64-2.2,1.47-1.95.82-5,1.53-6.63s3-1.37,4.07-2.75-.59-4.68,0-6.43,2.29-3.42,3.06-4.62,0-3-2.63-2.09-4,4.06-6.55,3.53-4.73,1-4.77,3.53a5.57,5.57,0,0,1-.56,2.87c-.48.78-1.76,1.22-2.34,2.43Z" style="fill:#4650DD"></path><path d="M334.79,320c2.5.32,5.39-.54,6.64-2.2,1.47-1.95.82-5,1.53-6.63s3-1.37,4.07-2.75-.59-4.68,0-6.43,2.29-3.42,3.06-4.62,0-3-2.63-2.09-4,4.06-6.55,3.53-4.73,1-4.77,3.53a5.57,5.57,0,0,1-.56,2.87c-.48.78-1.76,1.22-2.34,2.43Z" style="opacity:0.2"></path><path d="M348.92,296c-3.67,2-13.63,13.44-14.45,19.52" style="fill:none;stroke:#fff;stroke-linecap:round;stroke-miterlimit:10;stroke-width:0.5px"></path></g><g id="freepik--Buildings--inject-4"><polygon points="107.83 289.46 152.51 263.66 152.51 153.43 107.83 179.23 107.83 289.46" style="fill:#37474f"></polygon><polygon points="107.83 179.23 59.08 151.09 59.08 261.31 107.83 289.46 107.83 179.23" style="fill:#455a64"></polygon><polygon points="152.51 153.43 103.77 125.29 59.08 151.09 107.83 179.23 152.51 153.43" style="fill:#37474f"></polygon><polygon points="77.33 271.87 77.33 253.1 89.96 260.36 89.96 279.12 77.33 271.87" style="fill:#e0e0e0"></polygon><polygon points="82.84 256.27 84.07 256.98 84.07 275.74 82.84 275.03 82.84 256.27" style="fill:#263238"></polygon><polygon points="102.72 258.35 102.72 247.89 94.36 243.06 94.36 253.52 102.72 258.35" style="fill:#e0e0e0"></polygon><polygon points="94.36 253.52 96.45 252.32 96.45 244.27 94.36 243.06 94.36 253.52" style="fill:#263238"></polygon><polygon points="102.72 255.94 96.45 252.32 94.36 253.52 102.72 258.35 102.72 255.94" style="fill:#37474f"></polygon><polygon points="102.72 278.39 102.72 267.93 94.36 263.11 94.36 273.57 102.72 278.39" style="fill:#e0e0e0"></polygon><polygon points="94.36 273.57 96.45 272.36 96.45 264.31 94.36 263.11 94.36 273.57" style="fill:#263238"></polygon><polygon points="102.72 275.98 96.45 272.36 94.36 273.57 102.72 278.39 102.72 275.98" style="fill:#37474f"></polygon><polygon points="102.72 238.73 102.72 228.27 94.36 223.45 94.36 233.91 102.72 238.73" style="fill:#e0e0e0"></polygon><polygon points="94.36 233.91 96.45 232.7 96.45 224.65 94.36 223.45 94.36 233.91" style="fill:#263238"></polygon><polygon points="102.72 236.32 96.45 232.7 94.36 233.91 102.72 238.73 102.72 236.32" style="fill:#37474f"></polygon><polygon points="102.72 219.11 102.72 208.65 94.36 203.83 94.36 214.29 102.72 219.11" style="fill:#e0e0e0"></polygon><polygon points="94.36 214.29 96.45 213.08 96.45 205.03 94.36 203.83 94.36 214.29" style="fill:#263238"></polygon><polygon points="102.72 216.7 96.45 213.08 94.36 214.29 102.72 219.11 102.72 216.7" style="fill:#37474f"></polygon><polygon points="102.72 199.5 102.72 189.03 94.36 184.21 94.36 194.67 102.72 199.5" style="fill:#e0e0e0"></polygon><polygon points="94.36 194.67 96.45 193.46 96.45 185.42 94.36 184.21 94.36 194.67" style="fill:#263238"></polygon><polygon points="102.72 197.08 96.45 193.46 94.36 194.67 102.72 199.5 102.72 197.08" style="fill:#37474f"></polygon><polygon points="72.56 240.94 72.56 230.48 64.2 225.65 64.2 236.11 72.56 240.94" style="fill:#e0e0e0"></polygon><polygon points="64.2 236.11 66.29 234.91 66.29 226.86 64.2 225.65 64.2 236.11" style="fill:#263238"></polygon><polygon points="72.56 238.53 66.29 234.91 64.2 236.11 72.56 240.94 72.56 238.53" style="fill:#37474f"></polygon><polygon points="72.56 260.98 72.56 250.52 64.2 245.7 64.2 256.15 72.56 260.98" style="fill:#e0e0e0"></polygon><polygon points="64.2 256.15 66.29 254.95 66.29 246.9 64.2 245.7 64.2 256.15" style="fill:#263238"></polygon><polygon points="72.56 258.57 66.29 254.95 64.2 256.15 72.56 260.98 72.56 258.57" style="fill:#37474f"></polygon><polygon points="72.56 221.15 72.56 210.69 64.2 205.87 64.2 216.33 72.56 221.15" style="fill:#e0e0e0"></polygon><polygon points="64.2 216.33 66.29 215.12 66.29 207.07 64.2 205.87 64.2 216.33" style="fill:#263238"></polygon><polygon points="72.56 218.74 66.29 215.12 64.2 216.33 72.56 221.15 72.56 218.74" style="fill:#37474f"></polygon><polygon points="72.56 201.37 72.56 190.91 64.2 186.08 64.2 196.54 72.56 201.37" style="fill:#e0e0e0"></polygon><polygon points="64.2 196.54 66.29 195.34 66.29 187.29 64.2 186.08 64.2 196.54" style="fill:#263238"></polygon><polygon points="72.56 198.96 66.29 195.34 64.2 196.54 72.56 201.37 72.56 198.96" style="fill:#37474f"></polygon><polygon points="72.56 181.58 72.56 171.12 64.2 166.3 64.2 176.76 72.56 181.58" style="fill:#fafafa"></polygon><polygon points="64.2 176.76 66.29 175.55 66.29 167.5 64.2 166.3 64.2 176.76" style="fill:#263238"></polygon><polygon points="72.56 179.17 66.29 175.55 64.2 176.76 72.56 181.58 72.56 179.17" style="fill:#37474f"></polygon><polygon points="77.33 173.35 82.2 176.16 82.2 246.51 77.33 243.71 77.33 173.35" style="fill:#fafafa"></polygon><polygon points="77.33 173.35 79.39 174.54 79.39 242.55 77.33 243.71 77.33 173.35" style="fill:#263238"></polygon><polygon points="79.39 242.55 82.2 244.11 82.2 246.51 77.33 243.71 79.39 242.55" style="fill:#37474f"></polygon><polygon points="85.08 177.78 89.96 180.58 89.96 250.94 85.08 248.13 85.08 177.78" style="fill:#fafafa"></polygon><polygon points="85.08 177.78 87.14 178.97 87.14 246.97 85.08 248.13 85.08 177.78" style="fill:#263238"></polygon><polygon points="87.14 246.97 89.96 248.53 89.96 250.94 85.08 248.13 87.14 246.97" style="fill:#37474f"></polygon><polygon points="113 258.35 113 247.89 121.35 243.06 121.35 253.52 113 258.35" style="fill:#e0e0e0"></polygon><polygon points="121.35 253.52 119.26 252.32 119.27 244.27 121.35 243.06 121.35 253.52" style="fill:#455a64"></polygon><polygon points="113 255.94 119.26 252.32 121.35 253.52 113 258.35 113 255.94" style="fill:#263238"></polygon><polygon points="125.99 250.88 125.99 240.42 134.35 235.6 134.35 246.06 125.99 250.88" style="fill:#e0e0e0"></polygon><polygon points="134.35 246.06 132.26 244.85 132.26 236.8 134.35 235.6 134.35 246.06" style="fill:#455a64"></polygon><polygon points="125.99 248.47 132.26 244.85 134.35 246.06 125.99 250.88 125.99 248.47" style="fill:#263238"></polygon><polygon points="138.98 243.42 138.98 232.96 147.34 228.13 147.34 238.59 138.98 243.42" style="fill:#e0e0e0"></polygon><polygon points="147.34 238.59 145.25 237.39 145.25 229.34 147.34 228.13 147.34 238.59" style="fill:#455a64"></polygon><polygon points="138.98 241 145.25 237.39 147.34 238.59 138.98 243.42 138.98 241" style="fill:#263238"></polygon><polygon points="113 278.39 113 267.93 121.35 263.11 121.35 273.57 113 278.39" style="fill:#e0e0e0"></polygon><polygon points="121.35 273.57 119.26 272.36 119.27 264.31 121.35 263.11 121.35 273.57" style="fill:#455a64"></polygon><polygon points="113 275.98 119.26 272.36 121.35 273.57 113 278.39 113 275.98" style="fill:#263238"></polygon><polygon points="125.99 270.93 125.99 260.46 134.35 255.64 134.35 266.1 125.99 270.93" style="fill:#e0e0e0"></polygon><polygon points="134.35 266.1 132.26 264.89 132.26 256.85 134.35 255.64 134.35 266.1" style="fill:#455a64"></polygon><polygon points="125.99 268.51 132.26 264.89 134.35 266.1 125.99 270.93 125.99 268.51" style="fill:#263238"></polygon><polygon points="138.98 263.46 138.98 253 147.34 248.17 147.34 258.63 138.98 263.46" style="fill:#e0e0e0"></polygon><polygon points="147.34 258.63 145.25 257.43 145.25 249.38 147.34 248.17 147.34 258.63" style="fill:#455a64"></polygon><polygon points="138.98 261.05 145.25 257.43 147.34 258.63 138.98 263.46 138.98 261.05" style="fill:#263238"></polygon><polygon points="113 238.73 113 228.27 121.35 223.45 121.35 233.91 113 238.73" style="fill:#e0e0e0"></polygon><polygon points="121.35 233.91 119.26 232.7 119.27 224.65 121.35 223.45 121.35 233.91" style="fill:#455a64"></polygon><polygon points="113 236.32 119.26 232.7 121.35 233.91 113 238.73 113 236.32" style="fill:#263238"></polygon><polygon points="125.99 231.18 125.99 220.72 134.35 215.9 134.35 226.36 125.99 231.18" style="fill:#e0e0e0"></polygon><polygon points="134.35 226.36 132.26 225.15 132.26 217.1 134.35 215.9 134.35 226.36" style="fill:#455a64"></polygon><polygon points="125.99 228.77 132.26 225.15 134.35 226.36 125.99 231.18 125.99 228.77" style="fill:#263238"></polygon><polygon points="138.98 223.63 138.98 213.17 147.34 208.35 147.34 218.81 138.98 223.63" style="fill:#e0e0e0"></polygon><polygon points="147.34 218.81 145.25 217.6 145.25 209.55 147.34 208.35 147.34 218.81" style="fill:#455a64"></polygon><polygon points="138.98 221.22 145.25 217.6 147.34 218.81 138.98 223.63 138.98 221.22" style="fill:#263238"></polygon><polygon points="113 219.11 113 208.65 121.35 203.83 121.35 214.29 113 219.11" style="fill:#e0e0e0"></polygon><polygon points="121.35 214.29 119.26 213.08 119.27 205.03 121.35 203.83 121.35 214.29" style="fill:#455a64"></polygon><polygon points="113 216.7 119.26 213.08 121.35 214.29 113 219.11 113 216.7" style="fill:#263238"></polygon><polygon points="125.99 211.48 125.99 201.02 134.35 196.19 134.35 206.66 125.99 211.48" style="fill:#e0e0e0"></polygon><polygon points="134.35 206.66 132.26 205.45 132.26 197.4 134.35 196.19 134.35 206.66" style="fill:#455a64"></polygon><polygon points="125.99 209.07 132.26 205.45 134.35 206.66 125.99 211.48 125.99 209.07" style="fill:#263238"></polygon><polygon points="138.98 203.85 138.98 193.39 147.34 188.56 147.34 199.02 138.98 203.85" style="fill:#e0e0e0"></polygon><polygon points="147.34 199.02 145.25 197.82 145.25 189.77 147.34 188.56 147.34 199.02" style="fill:#455a64"></polygon><polygon points="138.98 201.44 145.25 197.82 147.34 199.02 138.98 203.85 138.98 201.44" style="fill:#263238"></polygon><polygon points="113 199.5 113 189.03 121.35 184.21 121.35 194.67 113 199.5" style="fill:#e0e0e0"></polygon><polygon points="121.35 194.67 119.26 193.46 119.27 185.42 121.35 184.21 121.35 194.67" style="fill:#455a64"></polygon><polygon points="113 197.08 119.26 193.46 121.35 194.67 113 199.5 113 197.08" style="fill:#263238"></polygon><polygon points="125.99 191.78 125.99 181.32 134.35 176.49 134.35 186.95 125.99 191.78" style="fill:#e0e0e0"></polygon><polygon points="134.35 186.95 132.26 185.75 132.26 177.7 134.35 176.49 134.35 186.95" style="fill:#455a64"></polygon><polygon points="125.99 189.37 132.26 185.75 134.35 186.95 125.99 191.78 125.99 189.37" style="fill:#263238"></polygon><polygon points="138.98 184.06 138.98 173.6 147.34 168.78 147.34 179.24 138.98 184.06" style="fill:#e0e0e0"></polygon><polygon points="147.34 179.24 145.25 178.03 145.25 169.98 147.34 168.78 147.34 179.24" style="fill:#455a64"></polygon><polygon points="138.98 181.65 145.25 178.03 147.34 179.24 138.98 184.06 138.98 181.65" style="fill:#263238"></polygon><polygon points="67.21 151.09 103.77 129.98 144.38 153.43 107.83 174.54 67.21 151.09" style="fill:#f0f0f0"></polygon><polygon points="103.77 129.98 103.77 134.67 140.32 155.78 144.38 153.43 103.77 129.98" style="fill:#455a64"></polygon><polygon points="103.77 129.98 67.21 151.09 71.27 153.43 103.77 134.67 103.77 129.98" style="fill:#263238"></polygon><polygon points="389.76 289.46 345.08 263.66 345.08 153.43 389.77 179.23 389.76 289.46" style="fill:#455a64"></polygon><polygon points="389.77 179.23 438.51 151.09 438.51 261.31 389.76 289.46 389.77 179.23" style="fill:#37474f"></polygon><polygon points="345.08 153.43 393.83 125.29 438.51 151.09 389.77 179.23 345.08 153.43" style="fill:#37474f"></polygon><polygon points="420.27 271.87 420.27 253.1 407.63 260.36 407.64 279.12 420.27 271.87" style="fill:#e0e0e0"></polygon><polygon points="414.75 256.27 413.53 256.98 413.53 275.74 414.75 275.03 414.75 256.27" style="fill:#263238"></polygon><polygon points="394.87 258.35 394.87 247.89 403.23 243.06 403.23 253.52 394.87 258.35" style="fill:#e0e0e0"></polygon><polygon points="403.23 253.52 401.14 252.32 401.14 244.27 403.23 243.06 403.23 253.52" style="fill:#263238"></polygon><polygon points="394.87 255.94 401.14 252.32 403.23 253.52 394.87 258.35 394.87 255.94" style="fill:#455a64"></polygon><polygon points="394.87 278.39 394.87 267.93 403.23 263.11 403.23 273.57 394.87 278.39" style="fill:#e0e0e0"></polygon><polygon points="403.23 273.57 401.14 272.36 401.14 264.31 403.23 263.11 403.23 273.57" style="fill:#263238"></polygon><polygon points="394.87 275.98 401.14 272.36 403.23 273.57 394.87 278.39 394.87 275.98" style="fill:#455a64"></polygon><polygon points="394.87 238.73 394.87 228.27 403.23 223.45 403.23 233.91 394.87 238.73" style="fill:#e0e0e0"></polygon><polygon points="403.23 233.91 401.14 232.7 401.14 224.65 403.23 223.45 403.23 233.91" style="fill:#263238"></polygon><polygon points="394.87 236.32 401.14 232.7 403.23 233.91 394.87 238.73 394.87 236.32" style="fill:#455a64"></polygon><polygon points="394.87 219.11 394.87 208.65 403.23 203.83 403.23 214.29 394.87 219.11" style="fill:#e0e0e0"></polygon><polygon points="403.23 214.29 401.14 213.08 401.14 205.03 403.23 203.83 403.23 214.29" style="fill:#263238"></polygon><polygon points="394.87 216.7 401.14 213.08 403.23 214.29 394.87 219.11 394.87 216.7" style="fill:#455a64"></polygon><polygon points="394.87 199.5 394.87 189.03 403.23 184.21 403.23 194.67 394.87 199.5" style="fill:#e0e0e0"></polygon><polygon points="403.23 194.67 401.14 193.46 401.14 185.42 403.23 184.21 403.23 194.67" style="fill:#263238"></polygon><polygon points="394.87 197.08 401.14 193.46 403.23 194.67 394.87 199.5 394.87 197.08" style="fill:#455a64"></polygon><polygon points="425.04 240.94 425.04 230.48 433.39 225.65 433.39 236.11 425.04 240.94" style="fill:#e0e0e0"></polygon><polygon points="433.39 236.11 431.31 234.91 431.31 226.86 433.39 225.65 433.39 236.11" style="fill:#263238"></polygon><polygon points="425.04 238.53 431.31 234.91 433.39 236.11 425.04 240.94 425.04 238.53" style="fill:#455a64"></polygon><polygon points="425.04 260.98 425.04 250.52 433.39 245.7 433.39 256.15 425.04 260.98" style="fill:#e0e0e0"></polygon><polygon points="433.39 256.15 431.31 254.95 431.31 246.9 433.39 245.7 433.39 256.15" style="fill:#263238"></polygon><polygon points="425.04 258.57 431.31 254.95 433.39 256.15 425.04 260.98 425.04 258.57" style="fill:#455a64"></polygon><polygon points="425.04 221.15 425.04 210.69 433.39 205.87 433.39 216.33 425.04 221.15" style="fill:#e0e0e0"></polygon><polygon points="433.39 216.33 431.31 215.12 431.31 207.07 433.39 205.87 433.39 216.33" style="fill:#263238"></polygon><polygon points="425.04 218.74 431.31 215.12 433.39 216.33 425.04 221.15 425.04 218.74" style="fill:#455a64"></polygon><polygon points="425.04 201.37 425.04 190.91 433.39 186.08 433.39 196.54 425.04 201.37" style="fill:#e0e0e0"></polygon><polygon points="433.39 196.54 431.31 195.34 431.31 187.29 433.39 186.08 433.39 196.54" style="fill:#263238"></polygon><polygon points="425.04 198.96 431.31 195.34 433.39 196.54 425.04 201.37 425.04 198.96" style="fill:#455a64"></polygon><polygon points="425.04 181.58 425.04 171.12 433.39 166.3 433.39 176.76 425.04 181.58" style="fill:#fafafa"></polygon><polygon points="433.39 176.76 431.31 175.55 431.31 167.5 433.39 166.3 433.39 176.76" style="fill:#263238"></polygon><polygon points="425.04 179.17 431.31 175.55 433.39 176.76 425.04 181.58 425.04 179.17" style="fill:#455a64"></polygon><polygon points="420.27 173.35 415.39 176.16 415.39 246.51 420.27 243.71 420.27 173.35" style="fill:#fafafa"></polygon><polygon points="420.27 173.35 418.2 174.54 418.2 242.55 420.27 243.71 420.27 173.35" style="fill:#263238"></polygon><polygon points="418.2 242.55 415.39 244.11 415.39 246.51 420.27 243.71 418.2 242.55" style="fill:#455a64"></polygon><polygon points="412.51 177.78 407.64 180.58 407.64 250.94 412.51 248.13 412.51 177.78" style="fill:#fafafa"></polygon><polygon points="412.51 177.78 410.45 178.97 410.45 246.97 412.51 248.13 412.51 177.78" style="fill:#263238"></polygon><polygon points="410.45 246.97 407.64 248.53 407.64 250.94 412.51 248.13 410.45 246.97" style="fill:#455a64"></polygon><polygon points="384.6 258.35 384.6 247.89 376.24 243.06 376.24 253.52 384.6 258.35" style="fill:#e0e0e0"></polygon><polygon points="376.24 253.52 378.33 252.32 378.33 244.27 376.24 243.06 376.24 253.52" style="fill:#37474f"></polygon><polygon points="384.6 255.94 378.33 252.32 376.24 253.52 384.6 258.35 384.6 255.94" style="fill:#263238"></polygon><polygon points="371.6 250.88 371.6 240.42 363.25 235.6 363.25 246.06 371.6 250.88" style="fill:#e0e0e0"></polygon><polygon points="363.25 246.06 365.33 244.85 365.33 236.8 363.25 235.6 363.25 246.06" style="fill:#37474f"></polygon><polygon points="371.6 248.47 365.33 244.85 363.25 246.06 371.6 250.88 371.6 248.47" style="fill:#263238"></polygon><polygon points="358.61 243.42 358.61 232.96 350.25 228.13 350.25 238.59 358.61 243.42" style="fill:#e0e0e0"></polygon><polygon points="350.25 238.59 352.34 237.39 352.34 229.34 350.25 228.13 350.25 238.59" style="fill:#37474f"></polygon><polygon points="358.61 241 352.34 237.39 350.25 238.59 358.61 243.42 358.61 241" style="fill:#263238"></polygon><polygon points="384.6 278.39 384.6 267.93 376.24 263.11 376.24 273.57 384.6 278.39" style="fill:#e0e0e0"></polygon><polygon points="376.24 273.57 378.33 272.36 378.33 264.31 376.24 263.11 376.24 273.57" style="fill:#37474f"></polygon><polygon points="384.6 275.98 378.33 272.36 376.24 273.57 384.6 278.39 384.6 275.98" style="fill:#263238"></polygon><polygon points="371.6 270.93 371.6 260.46 363.25 255.64 363.25 266.1 371.6 270.93" style="fill:#e0e0e0"></polygon><polygon points="363.25 266.1 365.33 264.89 365.33 256.85 363.25 255.64 363.25 266.1" style="fill:#37474f"></polygon><polygon points="371.6 268.51 365.33 264.89 363.25 266.1 371.6 270.93 371.6 268.51" style="fill:#263238"></polygon><polygon points="358.61 263.46 358.61 253 350.25 248.17 350.25 258.63 358.61 263.46" style="fill:#e0e0e0"></polygon><polygon points="350.25 258.63 352.34 257.43 352.34 249.38 350.25 248.17 350.25 258.63" style="fill:#37474f"></polygon><polygon points="358.61 261.05 352.34 257.43 350.25 258.63 358.61 263.46 358.61 261.05" style="fill:#263238"></polygon><polygon points="384.6 238.73 384.6 228.27 376.24 223.45 376.24 233.91 384.6 238.73" style="fill:#e0e0e0"></polygon><polygon points="376.24 233.91 378.33 232.7 378.33 224.65 376.24 223.45 376.24 233.91" style="fill:#37474f"></polygon><polygon points="384.6 236.32 378.33 232.7 376.24 233.91 384.6 238.73 384.6 236.32" style="fill:#263238"></polygon><polygon points="371.6 231.18 371.6 220.72 363.25 215.9 363.25 226.36 371.6 231.18" style="fill:#e0e0e0"></polygon><polygon points="363.25 226.36 365.33 225.15 365.33 217.1 363.25 215.9 363.25 226.36" style="fill:#37474f"></polygon><polygon points="371.6 228.77 365.33 225.15 363.25 226.36 371.6 231.18 371.6 228.77" style="fill:#263238"></polygon><polygon points="358.61 223.63 358.61 213.17 350.25 208.35 350.25 218.81 358.61 223.63" style="fill:#e0e0e0"></polygon><polygon points="350.25 218.81 352.34 217.6 352.34 209.55 350.25 208.35 350.25 218.81" style="fill:#37474f"></polygon><polygon points="358.61 221.22 352.34 217.6 350.25 218.81 358.61 223.63 358.61 221.22" style="fill:#263238"></polygon><polygon points="384.6 219.11 384.6 208.65 376.24 203.83 376.24 214.29 384.6 219.11" style="fill:#e0e0e0"></polygon><polygon points="376.24 214.29 378.33 213.08 378.33 205.03 376.24 203.83 376.24 214.29" style="fill:#37474f"></polygon><polygon points="384.6 216.7 378.33 213.08 376.24 214.29 384.6 219.11 384.6 216.7" style="fill:#263238"></polygon><polygon points="371.6 211.48 371.6 201.02 363.25 196.19 363.25 206.66 371.6 211.48" style="fill:#e0e0e0"></polygon><polygon points="363.25 206.66 365.33 205.45 365.33 197.4 363.25 196.19 363.25 206.66" style="fill:#37474f"></polygon><polygon points="371.6 209.07 365.33 205.45 363.25 206.66 371.6 211.48 371.6 209.07" style="fill:#263238"></polygon><polygon points="358.61 203.85 358.61 193.39 350.25 188.56 350.25 199.02 358.61 203.85" style="fill:#e0e0e0"></polygon><polygon points="350.25 199.02 352.34 197.82 352.34 189.77 350.25 188.56 350.25 199.02" style="fill:#37474f"></polygon><polygon points="358.61 201.44 352.34 197.82 350.25 199.02 358.61 203.85 358.61 201.44" style="fill:#263238"></polygon><polygon points="384.6 199.5 384.6 189.03 376.24 184.21 376.24 194.67 384.6 199.5" style="fill:#e0e0e0"></polygon><polygon points="376.24 194.67 378.33 193.46 378.33 185.42 376.24 184.21 376.24 194.67" style="fill:#37474f"></polygon><polygon points="384.6 197.08 378.33 193.46 376.24 194.67 384.6 199.5 384.6 197.08" style="fill:#263238"></polygon><polygon points="371.6 191.78 371.6 181.32 363.25 176.49 363.25 186.95 371.6 191.78" style="fill:#e0e0e0"></polygon><polygon points="363.25 186.95 365.33 185.75 365.33 177.7 363.25 176.49 363.25 186.95" style="fill:#37474f"></polygon><polygon points="371.6 189.37 365.33 185.75 363.25 186.95 371.6 191.78 371.6 189.37" style="fill:#263238"></polygon><polygon points="358.61 184.06 358.61 173.6 350.25 168.78 350.25 179.24 358.61 184.06" style="fill:#e0e0e0"></polygon><polygon points="350.25 179.24 352.34 178.03 352.34 169.98 350.25 168.78 350.25 179.24" style="fill:#37474f"></polygon><polygon points="358.61 181.65 352.34 178.03 350.25 179.24 358.61 184.06 358.61 181.65" style="fill:#263238"></polygon><polygon points="430.39 151.09 393.83 129.98 353.21 153.43 389.77 174.54 430.39 151.09" style="fill:#f0f0f0"></polygon><polygon points="393.83 129.98 393.83 134.67 357.27 155.78 353.21 153.43 393.83 129.98" style="fill:#263238"></polygon><polygon points="393.83 129.98 430.39 151.09 426.32 153.43 393.83 134.67 393.83 129.98" style="fill:#455a64"></polygon><path d="M323.49,392.47a20.87,20.87,0,0,1-15.87,0c-4.38-2.09-4.38-5.47,0-7.56a20.87,20.87,0,0,1,15.87,0C327.88,387,327.88,390.38,323.49,392.47Z" style="fill:#e0e0e0"></path><path d="M159.36,385.58a20.89,20.89,0,0,0,15.88,0c4.38-2.09,4.38-5.47,0-7.56a20.89,20.89,0,0,0-15.88,0C155,380.11,155,383.49,159.36,385.58Z" style="fill:#e0e0e0"></path><path d="M252.17,384.36l97.22-56.13a4.07,4.07,0,0,0,0-7.19l-97.23-56.13a4.79,4.79,0,0,0-4.33,0L150.61,321a4.07,4.07,0,0,0,0,7.19l97.23,56.13A4.79,4.79,0,0,0,252.17,384.36Z" style="fill:#4650DD"></path><path d="M252.17,384.36l97.22-56.13a4.07,4.07,0,0,0,0-7.19l-97.23-56.13a4.79,4.79,0,0,0-4.33,0L150.61,321a4.07,4.07,0,0,0,0,7.19l97.23,56.13A4.79,4.79,0,0,0,252.17,384.36Z" style="fill:#4650DD"></path><path d="M252.17,384.36l97.22-56.13a4.07,4.07,0,0,0,0-7.19l-97.23-56.13a4.79,4.79,0,0,0-4.33,0L150.61,321a4.07,4.07,0,0,0,0,7.19l97.23,56.13A4.79,4.79,0,0,0,252.17,384.36Z" style="fill:#4650DD"></path><path d="M252.17,384.36l97.22-56.13a4.07,4.07,0,0,0,0-7.19l-97.23-56.13a4.79,4.79,0,0,0-4.33,0L150.61,321a4.07,4.07,0,0,0,0,7.19l97.23,56.13A4.79,4.79,0,0,0,252.17,384.36Z" style="opacity:0.2"></path><path d="M150.61,323.54l97.23,56.13a4.79,4.79,0,0,0,4.33,0l97.22-56.13a1.32,1.32,0,0,0,0-2.5l-97.23-56.13a4.79,4.79,0,0,0-4.33,0L150.61,321A1.32,1.32,0,0,0,150.61,323.54Z" style="fill:#4650DD"></path><polygon points="266.25 359.81 335.3 319.94 335.3 153.43 266.25 193.3 266.25 359.81" style="fill:#37474f"></polygon><polygon points="250 371.54 250 202.68 164.7 153.43 164.7 322.29 250 371.54" style="fill:#455a64"></polygon><polygon points="250 301.18 164.7 251.93 164.7 247.24 156.57 251.93 250 305.87 250 301.18" style="fill:#4650DD"></polygon><polygon points="250 301.18 164.7 251.93 164.7 247.24 156.57 251.93 250 305.87 250 301.18" style="fill:#fff;opacity:0.5"></polygon><polygon points="156.57 251.93 250 305.87 250 310.56 156.57 256.62 156.57 251.93" style="fill:#4650DD"></polygon><polygon points="250 301.18 266.25 291.8 270.31 294.15 250 305.87 250 301.18" style="fill:#4650DD"></polygon><polygon points="250 301.18 266.25 291.8 270.31 294.15 250 305.87 250 301.18" style="fill:#fff;opacity:0.5"></polygon><polygon points="250 310.56 270.31 298.84 270.31 294.15 250 305.87 250 310.56" style="fill:#4650DD"></polygon><polygon points="250 310.56 270.31 298.84 270.31 294.15 250 305.87 250 310.56" style="opacity:0.2"></polygon><polygon points="250 202.68 266.25 193.3 266.25 291.8 250 301.18 250 202.68" style="fill:#263238"></polygon><polygon points="250 310.56 266.25 301.18 266.25 362.16 250 371.54 250 310.56" style="fill:#263238"></polygon><polygon points="241.88 287.11 241.88 263.66 225.63 254.28 225.63 277.73 241.88 287.11" style="fill:#4650DD"></polygon><polygon points="241.88 287.11 241.88 263.66 225.63 254.28 225.63 277.73 241.88 287.11" style="fill:#fff;opacity:0.5"></polygon><polygon points="225.63 277.73 229.69 275.39 229.69 256.62 225.63 254.28 225.63 277.73" style="fill:#263238"></polygon><polygon points="241.88 282.42 229.69 275.39 225.63 277.73 241.88 287.11 241.88 282.42" style="fill:#263238"></polygon><polygon points="217.5 273.04 217.5 249.59 197.19 237.86 197.19 261.31 217.5 273.04" style="fill:#4650DD"></polygon><polygon points="217.5 273.04 217.5 249.59 197.19 237.86 197.19 261.31 217.5 273.04" style="fill:#fff;opacity:0.5"></polygon><polygon points="201.25 258.97 201.26 240.21 197.19 237.86 197.19 261.31 201.25 258.97" style="fill:#263238"></polygon><polygon points="217.5 268.35 217.5 273.04 197.19 261.31 201.25 258.97 217.5 268.35" style="fill:#263238"></polygon><polygon points="276.4 337.53 276.4 314.08 296.71 302.36 296.71 325.81 276.4 337.53" style="fill:#4650DD"></polygon><polygon points="292.65 323.46 292.65 304.7 296.71 302.36 296.71 325.81 292.65 323.46" style="fill:#263238"></polygon><polygon points="276.4 332.84 276.4 337.53 296.71 325.81 292.65 323.46 276.4 332.84" style="fill:#263238"></polygon><polygon points="276.4 298.45 276.4 275 296.71 263.27 296.71 286.72 276.4 298.45" style="fill:#4650DD"></polygon><polygon points="292.65 284.38 292.65 265.61 296.71 263.27 296.71 286.72 292.65 284.38" style="fill:#263238"></polygon><polygon points="276.4 293.76 276.4 298.45 296.71 286.72 292.65 284.38 276.4 293.76" style="fill:#263238"></polygon><polygon points="276.4 259.36 276.4 235.91 296.71 224.18 296.71 247.63 276.4 259.36" style="fill:#4650DD"></polygon><polygon points="292.65 245.29 292.65 226.53 296.71 224.18 296.71 247.63 292.65 245.29" style="fill:#263238"></polygon><polygon points="276.4 254.67 276.4 259.36 296.71 247.63 292.65 245.29 276.4 254.67" style="fill:#263238"></polygon><polygon points="276.4 220.27 276.4 196.82 296.71 185.09 296.71 208.55 276.4 220.27" style="fill:#4650DD"></polygon><polygon points="292.65 206.2 292.65 187.44 296.71 185.09 296.71 208.55 292.65 206.2" style="fill:#263238"></polygon><polygon points="276.4 215.58 276.4 220.27 296.71 208.55 292.65 206.2 276.4 215.58" style="fill:#263238"></polygon><polygon points="305.28 320.86 305.28 297.41 325.6 285.69 325.59 309.14 305.28 320.86" style="fill:#4650DD"></polygon><polygon points="321.53 306.79 321.53 288.03 325.6 285.69 325.59 309.14 321.53 306.79" style="fill:#263238"></polygon><polygon points="305.28 316.18 305.28 320.86 325.59 309.14 321.53 306.79 305.28 316.18" style="fill:#263238"></polygon><polygon points="305.28 281.78 305.28 258.32 325.6 246.6 325.59 270.05 305.28 281.78" style="fill:#4650DD"></polygon><polygon points="321.53 267.71 321.53 248.94 325.6 246.6 325.59 270.05 321.53 267.71" style="fill:#263238"></polygon><polygon points="305.28 277.09 305.28 281.78 325.59 270.05 321.53 267.71 305.28 277.09" style="fill:#263238"></polygon><polygon points="305.28 242.69 305.28 219.24 325.6 207.51 325.59 230.97 305.28 242.69" style="fill:#4650DD"></polygon><polygon points="321.53 228.62 321.53 209.86 325.6 207.51 325.59 230.97 321.53 228.62" style="fill:#263238"></polygon><polygon points="305.28 238 305.28 242.69 325.59 230.97 321.53 228.62 305.28 238" style="fill:#263238"></polygon><polygon points="305.28 203.6 305.28 180.15 325.6 168.43 325.59 191.88 305.28 203.6" style="fill:#4650DD"></polygon><polygon points="321.53 189.53 321.53 170.77 325.6 168.43 325.59 191.88 321.53 189.53" style="fill:#263238"></polygon><polygon points="305.28 198.91 305.28 203.6 325.59 191.88 321.53 189.53 305.28 198.91" style="fill:#263238"></polygon><polygon points="189.07 256.62 189.07 233.17 172.82 223.79 172.82 247.24 189.07 256.62" style="fill:#4650DD"></polygon><polygon points="189.07 256.62 189.07 233.17 172.82 223.79 172.82 247.24 189.07 256.62" style="fill:#fff;opacity:0.5"></polygon><polygon points="176.88 244.9 172.82 247.24 172.82 223.79 176.88 226.14 176.88 244.9" style="fill:#263238"></polygon><polygon points="189.07 251.93 176.88 244.9 172.82 247.24 189.07 256.62 189.07 251.93" style="fill:#263238"></polygon><path d="M197.19,301.41c0-6.62,4.55-9.37,10.16-6.13s10.15,11.23,10.15,17.86v39.64l-20.31-11.73Z" style="fill:#263238"></path><path d="M217.5,313.14c0-6.63-4.54-14.63-10.15-17.86a8.7,8.7,0,0,0-4.78-1.35,9.27,9.27,0,0,0-1.31,5.14v39.64l16.24,9.38Z" style="fill:#455a64"></path><path d="M217.5,313.14c0-6.63-4.54-14.63-10.15-17.86a8.7,8.7,0,0,0-4.78-1.35,9.27,9.27,0,0,0-1.31,5.14v39.64l16.24,9.38Z" style="fill:#4650DD"></path><path d="M217.5,313.14c0-6.63-4.54-14.63-10.15-17.86a8.7,8.7,0,0,0-4.78-1.35,9.27,9.27,0,0,0-1.31,5.14v39.64l16.24,9.38Z" style="fill:#fff;opacity:0.5"></path><path d="M210.28,297.49a16.42,16.42,0,0,0-2-1.61v10.54l-7-4.06v2.43l7,4.07v30.39l2,1.15V310l7.22,4.17v-1c0-.48,0-1-.07-1.45l-7.15-4.12Z" style="fill:#455a64"></path><polygon points="250 202.68 250 188.61 160.63 137.02 160.63 151.09 250 202.68" style="fill:#4650DD"></polygon><polygon points="250 202.68 250 188.61 160.63 137.02 160.63 151.09 250 202.68" style="fill:#fff;opacity:0.5"></polygon><polygon points="250 202.68 250 188.61 339.37 137.02 339.37 151.09 250 202.68" style="fill:#4650DD"></polygon><polygon points="250 202.68 250 188.61 339.37 137.02 339.37 151.09 250 202.68" style="opacity:0.2"></polygon><path d="M172.82,177.5c0-5.52,3.64-7.9,8.12-5.31s8.13,9.17,8.13,14.69v36.91l-16.25-9.38Z" style="fill:#263238"></path><path d="M180.94,172.18a7.15,7.15,0,0,0-3.18-1,8.41,8.41,0,0,0-.88,4v36.91l12.19,7V186.87C189.07,181.35,185.43,174.77,180.94,172.18Z" style="fill:#4650DD"></path><path d="M180.94,172.18a7.15,7.15,0,0,0-3.18-1,8.41,8.41,0,0,0-.88,4v36.91l12.19,7V186.87C189.07,181.35,185.43,174.77,180.94,172.18Z" style="fill:#fff;opacity:0.5"></path><polygon points="172.82 214.41 176.88 212.06 189.07 219.09 189.07 223.79 172.82 214.41" style="fill:#263238"></polygon><path d="M197.19,193.57c0-6.63,4.55-9.37,10.16-6.13s10.15,11.23,10.15,17.86v34.91l-20.31-11.73Z" style="fill:#263238"></path><path d="M217.5,205.3c0-6.63-4.54-14.63-10.15-17.86a8.7,8.7,0,0,0-4.78-1.35,9.27,9.27,0,0,0-1.31,5.14v34.9l16.24,9.39Z" style="fill:#4650DD"></path><path d="M217.5,205.3c0-6.63-4.54-14.63-10.15-17.86a8.7,8.7,0,0,0-4.78-1.35,9.27,9.27,0,0,0-1.31,5.14v34.9l16.24,9.39Z" style="fill:#fff;opacity:0.5"></path><polygon points="201.26 226.13 197.19 228.48 217.5 240.21 217.5 235.52 201.26 226.13" style="fill:#263238"></polygon><path d="M225.63,208c0-5.52,3.63-7.9,8.12-5.31s8.13,9.17,8.13,14.69v36.91l-16.25-9.38Z" style="fill:#263238"></path><path d="M233.75,202.68a7.19,7.19,0,0,0-3.18-1,8.37,8.37,0,0,0-.88,4v36.91l12.19,7V217.37C241.88,211.85,238.24,205.27,233.75,202.68Z" style="fill:#4650DD"></path><path d="M233.75,202.68a7.19,7.19,0,0,0-3.18-1,8.37,8.37,0,0,0-.88,4v36.91l12.19,7V217.37C241.88,211.85,238.24,205.27,233.75,202.68Z" style="fill:#fff;opacity:0.5"></path><polygon points="229.69 242.55 225.63 244.9 241.88 254.28 241.88 249.59 229.69 242.55" style="fill:#263238"></polygon><path d="M225.63,315.83c0-5.52,3.63-7.9,8.12-5.31s8.13,9.17,8.13,14.69v41.64l-16.25-9.38Z" style="fill:#263238"></path><path d="M233.75,310.52a7.19,7.19,0,0,0-3.18-1,8.41,8.41,0,0,0-.88,4v41.63l12.19,7v-37C241.88,319.69,238.24,313.11,233.75,310.52Z" style="fill:#4650DD"></path><path d="M233.75,310.52a7.19,7.19,0,0,0-3.18-1,8.41,8.41,0,0,0-.88,4v41.63l12.19,7v-37C241.88,319.69,238.24,313.11,233.75,310.52Z" style="fill:#fff;opacity:0.5"></path><polygon points="225.63 357.47 225.63 343.4 241.88 352.78 241.88 366.85 225.63 357.47" style="fill:#37474f"></polygon><polygon points="225.63 343.4 229.69 341.05 241.87 348.09 241.88 352.78 225.63 343.4" style="fill:#263238"></polygon><path d="M172.82,285.34c0-5.52,3.64-7.9,8.12-5.31s8.13,9.17,8.13,14.69v41.64L172.82,327Z" style="fill:#263238"></path><path d="M180.94,280a7.28,7.28,0,0,0-3.18-1,8.41,8.41,0,0,0-.88,4v41.64l12.19,7v-37C189.07,289.19,185.43,282.61,180.94,280Z" style="fill:#4650DD"></path><path d="M180.94,280a7.28,7.28,0,0,0-3.18-1,8.41,8.41,0,0,0-.88,4v41.64l12.19,7v-37C189.07,289.19,185.43,282.61,180.94,280Z" style="fill:#fff;opacity:0.5"></path><polygon points="189.07 336.36 189.07 322.29 172.82 312.91 172.82 326.98 189.07 336.36" style="fill:#37474f"></polygon><polygon points="172.82 312.91 176.88 310.56 189.07 317.6 189.07 322.29 172.82 312.91" style="fill:#263238"></polygon><polygon points="197.19 341.05 197.19 336.36 217.5 348.09 217.5 352.78 197.19 341.05" style="fill:#37474f"></polygon><polygon points="197.19 336.36 201.26 334.02 217.5 343.4 217.5 348.09 197.19 336.36" style="fill:#263238"></polygon><polygon points="250 188.61 339.37 137.02 250 85.42 160.63 137.02 250 188.61" style="fill:#4650DD"></polygon><polygon points="250 188.61 339.37 137.02 250 85.42 160.63 137.02 250 188.61" style="fill:#fff;opacity:0.7000000000000001"></polygon><polygon points="250 179.23 323.12 137.02 250 94.8 176.88 137.02 250 179.23" style="fill:#4650DD"></polygon><polygon points="250 94.8 250 108.88 189.07 144.05 176.88 137.02 250 94.8" style="fill:#4650DD"></polygon><polygon points="250 94.8 250 108.88 189.07 144.05 176.88 137.02 250 94.8" style="opacity:0.2"></polygon><polygon points="250 94.8 323.12 137.02 310.93 144.05 250 108.88 250 94.8" style="fill:#4650DD"></polygon><polygon points="250 94.8 323.12 137.02 310.93 144.05 250 108.88 250 94.8" style="fill:#fff;opacity:0.5"></polygon><polygon points="237.81 106.53 217.5 118.26 245.94 134.67 266.25 122.95 237.81 106.53" style="fill:#455a64"></polygon><polygon points="217.5 118.26 217.5 132.33 245.94 148.74 245.94 134.67 217.5 118.26" style="fill:#37474f"></polygon><polygon points="266.25 122.95 266.25 137.02 245.94 148.74 245.94 134.67 266.25 122.95" style="fill:#263238"></polygon><path d="M231.14,114.4c-3.69,2.13-3.69,5.58,0,7.71a14.74,14.74,0,0,0,13.35,0c3.68-2.13,3.68-5.58,0-7.71A14.74,14.74,0,0,0,231.14,114.4Z" style="fill:#37474f"></path><path d="M234.69,116.6c-1.73.91-1.73,2.4,0,3.31a7.42,7.42,0,0,0,6.25,0c1.72-.91,1.72-2.4,0-3.31A7.42,7.42,0,0,0,234.69,116.6Z" style="fill:#263238"></path><polyline points="252.22 135.73 256.28 138.07 256.28 147.46" style="fill:none;stroke:#455a64;stroke-linecap:round;stroke-linejoin:round;stroke-width:2px"></polyline><polyline points="258.12 132.33 262.18 134.67 262.18 144.05" style="fill:none;stroke:#455a64;stroke-linecap:round;stroke-linejoin:round;stroke-width:2px"></polyline></g><g id="freepik--Trees--inject-4"><path d="M132.52,273.68V306a1.29,1.29,0,0,0,.76,1.07,4.13,4.13,0,0,0,3.72,0,1.29,1.29,0,0,0,.76-1.07v-32.3Z" style="fill:#37474f"></path><path d="M147.76,283.08a12.62,12.62,0,0,1-25.24,0c0-12.9,5.65-27,12.62-27S147.76,270,147.76,283.08Z" style="fill:#4650DD"></path><path d="M147.76,283.08c0-.33,0-.66,0-1v-.33a6.44,6.44,0,0,1-1.53,3.73c-2.39,3-7.66,6.26-13.1,4-9.14-3.83-9.39-14.64-7.36-23.59a47.55,47.55,0,0,0-3.23,17.2,12.62,12.62,0,0,0,25.24,0Z" style="fill:#4650DD"></path><path d="M147.76,283.08c0-.33,0-.66,0-1v-.33a6.44,6.44,0,0,1-1.53,3.73c-2.39,3-7.66,6.26-13.1,4-9.14-3.83-9.39-14.64-7.36-23.59a47.55,47.55,0,0,0-3.23,17.2,12.62,12.62,0,0,0,25.24,0Z" style="opacity:0.1"></path><path d="M40.21,217v32.31A1.31,1.31,0,0,0,41,250.4a4.11,4.11,0,0,0,3.71,0,1.31,1.31,0,0,0,.77-1.07V217Z" style="fill:#37474f"></path><path d="M55.45,226.43a12.62,12.62,0,1,1-25.23,0c0-12.9,5.65-27,12.61-27S55.45,213.32,55.45,226.43Z" style="fill:#4650DD"></path><path d="M459.79,217v32.31a1.31,1.31,0,0,1-.77,1.07,4.11,4.11,0,0,1-3.71,0,1.31,1.31,0,0,1-.77-1.07V217Z" style="fill:#37474f"></path><path d="M444.55,226.43a12.62,12.62,0,1,0,25.23,0c0-12.9-5.65-27-12.61-27S444.55,213.32,444.55,226.43Z" style="fill:#4650DD"></path></g><g id="freepik--character-4--inject-4"><path d="M390,308.5h8.77v-9.67a4.38,4.38,0,0,0-4.39-4.38h0a4.38,4.38,0,0,0-4.38,4.38Z" style="fill:#4650DD"></path><g style="opacity:0.5"><path d="M390,308.5h8.77v-9.67a4.38,4.38,0,0,0-4.39-4.38h0a4.38,4.38,0,0,0-4.38,4.38Z"></path></g><path d="M391.17,311.72c.59-2.94,1.7-6.18,1.64-7.64l-.86.05a2.26,2.26,0,0,0-2.08,1.9c-.31,1.91-.78,4.83-1,6a24.38,24.38,0,0,1-1,4.4.92.92,0,0,1-.43.48,4.77,4.77,0,0,0-1.14.94c-.32.28-.57.34-.54.44a.48.48,0,0,0,.6.26,3.22,3.22,0,0,0,.73-.33,4.3,4.3,0,0,1-.82,1.19c-.76.8-.83,1.32.58,1.44.88.07,1.62-.42,2.43-2.3a16.25,16.25,0,0,0,.78-2.13C390.6,314.55,390.94,312.88,391.17,311.72Z" style="fill:#ffa8a7"></path><path d="M404.15,337c.33-.18.55.25.85.59a2.59,2.59,0,0,1,.6.89,1.9,1.9,0,0,1-.7,1.4,2.23,2.23,0,0,0-1,1.37,1.88,1.88,0,0,1-1.24,1.57,3.18,3.18,0,0,1-2.45,0c-.47-.3,0-.64.62-1.58.86-1.23,1.53-2.11,1.53-3.26Z" style="fill:#263238"></path><path d="M403.46,335.94l.7,1a1,1,0,0,1-.23,1.38l0,0a1.06,1.06,0,0,1-1.35-.21l-1.1-1.21Z" style="fill:#ffa8a7"></path><path d="M390,317.16a26.52,26.52,0,0,0,1.48,7.77,23.1,23.1,0,0,0,2,4.12c.29.5,8.56,8.55,8.56,8.55a1.81,1.81,0,0,0,1.63-1.47s-3.39-5.76-4.13-6.94a16.34,16.34,0,0,0-3.33-3l.24-10.34Z" style="fill:#37474f"></path><rect x="390.82" y="341.07" width="1.79" height="2.61" transform="translate(85.67 -78.33) rotate(12.81)" style="fill:#ffa8a7"></rect><path d="M391.48,315.72l7.44.29a7.11,7.11,0,0,1,.63,3.52c-.25,3.63-3.69,10.12-3.69,10.12a13.92,13.92,0,0,1-.22,4.4,78.47,78.47,0,0,1-2.76,7.8,2.36,2.36,0,0,1-1.9-.55s1.12-9.95,1.42-12.5c.33-2.76,1.17-7.8,1.17-7.8a12.1,12.1,0,0,1-1.5-1.8,5.27,5.27,0,0,1-1.13-3.48" style="fill:#37474f"></path><path d="M401.76,313.76a61.13,61.13,0,0,0-1.24-7.62,1.91,1.91,0,0,0-1.69-1.59h0c-2.43,1.31-2.41,3.05-.34,5.15,0,0,.86,3.38,1.13,5a22.59,22.59,0,0,1,.4,4.49.86.86,0,0,1-.27.58,5.08,5.08,0,0,0-.82,1.23c-.22.36-.45.49-.39.58a.48.48,0,0,0,.65.08,3.13,3.13,0,0,0,.6-.53,4.48,4.48,0,0,1-.43,1.37c-.5,1-.42,1.51,1,1.22.86-.18,1.43-.87,1.66-2.91a15.7,15.7,0,0,0,.14-2.27C402,316.63,401.88,314.94,401.76,313.76Z" style="fill:#ffa8a7"></path><path d="M390.75,342.59l.05-.25c-.18,0-1,1.34-1.75,1.91s-1.59,1-2,1.26.23,1.14,1.48,1.21a3.84,3.84,0,0,0,2.11-.49c.35-.33.6-.88.88-1.12s.84-.44,1-.75a2.12,2.12,0,0,0,.1-.94c0-.33,0-.69-.13-.68l0,.19a2.21,2.21,0,0,1-1.07.23C391.15,343.15,390.6,343.08,390.75,342.59Z" style="fill:#263238"></path><path d="M392.62,327.11s.75-5.29.95-6.11a8.74,8.74,0,0,1-1.66-1.18,14.31,14.31,0,0,0,1.13,1.41Z" style="fill:#263238"></path><path d="M397.11,326.93a23.86,23.86,0,0,1-1.25,2.72s.09,1.7.08,2l.47.41a10.83,10.83,0,0,0-.21-2.29A13.64,13.64,0,0,0,397.11,326.93Z" style="fill:#263238"></path><path d="M396.21,304.12a26.51,26.51,0,0,1,2.62.43c-2.42,1.7-.34,5.15-.34,5.15l-1.29,3.57a15.33,15.33,0,0,1,2.09,3.72c-.68.78-4.72,3.14-9.33.17,0,0,.27-2.6.65-4.56-.66-3.18-.85-4.3-.65-5.05.54-2.1,1.78-3.44,3.2-3.52Z" style="fill:#f5f5f5"></path><path d="M391.48,296.22c-.46.27-1,1.44-1,3.88.05,2.07.72,2.58,1.06,2.73a3.43,3.43,0,0,0,1.61-.05V304s-.87,1-.81,1.59,1.26.7,2.07.15a6.63,6.63,0,0,0,1.51-1.65l0-2.85s.38.36,1-.19a1.19,1.19,0,0,0,.29-1.64.91.91,0,0,0-1.45.29,4.92,4.92,0,0,1-2.34-.7A3.75,3.75,0,0,1,391.48,296.22Z" style="fill:#ffa8a7"></path><path d="M392.81,299.58a.26.26,0,1,0,.52,0,.27.27,0,0,0-.25-.29A.27.27,0,0,0,392.81,299.58Z" style="fill:#263238"></path><path d="M392.74,301.34l-.6.19a.31.31,0,0,0,.39.22A.33.33,0,0,0,392.74,301.34Z" style="fill:#f28f8f"></path><path d="M390.68,298.78l.52-.36a.3.3,0,0,0-.43-.09A.32.32,0,0,0,390.68,298.78Z" style="fill:#263238"></path><path d="M390.8,299.39a.27.27,0,0,0,.25.29.27.27,0,0,0,.27-.26.26.26,0,1,0-.52,0Z" style="fill:#263238"></path><polygon points="392.03 299.24 391.99 300.81 391.16 300.56 392.03 299.24" style="fill:#f28f8f"></polygon><path d="M393.17,302.78c.67-.08,2-.48,2.25-1a1.39,1.39,0,0,1-.48.69,7.32,7.32,0,0,1-1.77.75Z" style="fill:#f28f8f"></path><polygon points="397.89 311.37 396.07 313.84 397.19 313.27 397.89 311.37" style="fill:#e0e0e0"></polygon></g><g id="freepik--character-3--inject-4"><path d="M310.57,354.25a29.57,29.57,0,0,0,.38-7.54.28.28,0,0,0-.52-.12l-1.93,3.58s-.23,2.62-.47,4.41a25.21,25.21,0,0,1-1,4.81,1,1,0,0,1-.46.52,5.43,5.43,0,0,0-1.25,1c-.34.31-.62.37-.58.48a.52.52,0,0,0,.65.29,3.35,3.35,0,0,0,.79-.36,4.72,4.72,0,0,1-.88,1.29c-.83.87-.9,1.43.62,1.56.95.08,1.76-.45,2.64-2.5a17.39,17.39,0,0,0,.85-2.31C310,357.32,310.32,355.5,310.57,354.25Z" style="fill:#b16668"></path><path d="M319.6,382.65s.12,0,.49.23a3.91,3.91,0,0,1,1.08,1,2.07,2.07,0,0,1-.48,1.63,3.41,3.41,0,0,0-.57,1.91,3.15,3.15,0,0,1-1.2,2.25c-.62.43-1.38.87-1.73.76s-.37-.54.07-2.44a23.21,23.21,0,0,0,.78-3.83Z" style="fill:#263238"></path><path d="M319.33,382.29l.41.55a.72.72,0,0,1,.13.6,1.58,1.58,0,0,1-.54.95.86.86,0,0,1-.57.17,1,1,0,0,1-.72-.39l-.32-.43Z" style="fill:#b16668"></path><path d="M309.38,358.58,314,363.2h-.13l-1.06,8.36a7.49,7.49,0,0,1,2.1,2.15c.88,1.36,4.38,8.58,4.38,8.58s-.41,1.61-1.61,1.45c0,0-1.86-2.32-3.86-4.86-2.19-2.79-4.61-5.81-4.74-6.36C308.41,369.52,309.38,358.58,309.38,358.58Z" style="fill:#455a64"></path><path d="M315,373.71c.88,1.36,4.38,8.58,4.38,8.58s-.41,1.61-1.61,1.45c0,0-1.86-2.32-3.86-4.86Z" style="fill:#37474f"></path><path d="M314.63,387.44a8.29,8.29,0,0,0-1.73-1.3,6.93,6.93,0,0,0-.92,0,3.75,3.75,0,0,1-.82-.09,11,11,0,0,1-1.6-.73,2.69,2.69,0,0,0-.7-.3c-.43-.08-.77-.09-.92.39a1.14,1.14,0,0,0-.05.45,2.8,2.8,0,0,0,1.14,2.29c.33.22.77.39,1.12.59a9.67,9.67,0,0,1,1.53.8c.72.62,1.39,1.23,2.4.83a1.24,1.24,0,0,0,.85-.84C315.07,389,314.57,388,314.63,387.44Z" style="fill:#263238"></path><path d="M309.43,357.86l9.9,1a23.9,23.9,0,0,1-.73,8.51c-.8,3.59-1.69,7.36-1.69,7.36A7.79,7.79,0,0,1,317,379c-.77,2.51-2.2,9.18-2.2,9.18a4.23,4.23,0,0,0-2.24-2.11s.36-3.51.58-6.05.35-4.66.43-6.23c.13-2.5.49-10.63.49-10.63h-.13s-3.89-1.84-4.53-4.62Z" style="fill:#455a64"></path><path d="M314,363.2a13.2,13.2,0,0,1-3.09-2l2.41,2.25-.44,7.53Z" style="fill:#37474f"></path><path d="M313.06,345.61c-1.47,0-3.23.47-3.93,1.82a23.15,23.15,0,0,0-1.25,5.31s.55,1.19,2.61,1.05Z" style="fill:#263238"></path><path d="M322.61,356.46c-.41-4.23-1.94-7.32-2.12-8.38l-1.24,5.23a38.88,38.88,0,0,1,1,4.2,25.42,25.42,0,0,1,.44,4.89,1,1,0,0,1-.29.63,5.2,5.2,0,0,0-.9,1.33c-.24.4-.49.53-.42.63a.52.52,0,0,0,.7.09,3.62,3.62,0,0,0,.66-.57A5,5,0,0,1,320,366c-.54,1.07-.45,1.64,1,1.32.94-.2,1.56-.94,1.81-3.16a18.25,18.25,0,0,0,.15-2.46C322.9,359.57,322.73,357.73,322.61,356.46Z" style="fill:#b16668"></path><path d="M316.07,345.7c1.74.42,4.12,1,4.81,2.86a53.62,53.62,0,0,1,1.43,5.48,3.3,3.3,0,0,1-2.91.87l-.4-1.41.33,5.39c-1.36,1.49-7,1.87-9.95-.31,0,0,.51-8,.51-9.49a3.27,3.27,0,0,1,3.17-3.48Z" style="fill:#37474f"></path><polygon points="319 353.5 318.12 350.74 319.08 354.87 319 353.5" style="fill:#263238"></polygon><path d="M316.72,337.94a1.06,1.06,0,0,1,.86.3c.37.38.29,1.08,0,2.68l-1.14.13Z" style="fill:#263238"></path><path d="M310.08,337.48a1.78,1.78,0,0,1-.72-.15c-.35-.2-.44.2-.25.54a1.62,1.62,0,0,0,1.33.88s.32-.89.32-.89Z" style="fill:#263238"></path><path d="M316.19,341.05c.17.1.41-.22.62-.44a.73.73,0,0,1,1.23.2c.34.73-.45,1.7-.91,2a.8.8,0,0,1-.94.08l-.12,2.79a3,3,0,0,1-2.25,1.7c-1.64.23-1.3-1.12-.76-1.79v-1a3.78,3.78,0,0,1-1.24.06,3.1,3.1,0,0,1-1.06-1.36,6.17,6.17,0,0,1-.43-4.47c.58-2.5,3.27-2.58,4.87-1.57S316.19,341.05,316.19,341.05Z" style="fill:#b16668"></path><path d="M316.19,341.34c.08,0,.4-.54.62-.73s-.09-2.67-.09-2.67a1.64,1.64,0,0,0-.28-1.52c-.58-.6-1.69-.5-2.51-.53a7.38,7.38,0,0,1-2.92-.58c-1.16-.51-1.25-.57-1.39-.06a2.82,2.82,0,0,0,.49,2.46l.38.62a3,3,0,0,0,1.43.42,11.15,11.15,0,0,0,3.16-.48c.31,0,.38.26.55,1.1S315.9,341.33,316.19,341.34Z" style="fill:#263238"></path><path d="M316.72,338.13l1-.55a.56.56,0,0,0-.77-.26A.61.61,0,0,0,316.72,338.13Z" style="fill:#263238"></path><path d="M313.06,344.6a11.88,11.88,0,0,0,2.05-.59,1.73,1.73,0,0,0,.73-.72,2.41,2.41,0,0,1-.41.85c-.39.5-2.37.86-2.37.86Z" style="fill:#9a4a4d"></path><path d="M313,341a.31.31,0,0,0,.31.31.32.32,0,0,0,0-.63A.31.31,0,0,0,313,341Z" style="fill:#263238"></path><path d="M313.34,339.85l.65.36a.4.4,0,0,0-.16-.52A.35.35,0,0,0,313.34,339.85Z" style="fill:#263238"></path><path d="M313.2,343l-.7.26a.38.38,0,0,0,.48.23A.39.39,0,0,0,313.2,343Z" style="fill:#9a4a4d"></path><path d="M310.3,340.1l.6-.45a.36.36,0,0,0-.52-.08A.39.39,0,0,0,310.3,340.1Z" style="fill:#263238"></path><path d="M310.49,340.91a.3.3,0,1,0,.6,0,.31.31,0,0,0-.3-.32A.31.31,0,0,0,310.49,340.91Z" style="fill:#263238"></path><polygon points="311.92 340.87 312.2 342.68 311.2 342.56 311.92 340.87" style="fill:#9a4a4d"></polygon></g><g id="freepik--character-2--inject-4"><path d="M168.79,337.59h0a4.76,4.76,0,0,1-4.76-4.76v-.2a4,4,0,0,1,4-4h1.45a4,4,0,0,1,4,4v.2A4.76,4.76,0,0,1,168.79,337.59Z" style="fill:#263238"></path><path d="M172.32,347.35c-.63-3.19-1.84-6.71-1.78-8.3l.93.06a2.46,2.46,0,0,1,2.27,2.06c.33,2.08.84,5.25,1,6.55a26.51,26.51,0,0,0,1.07,4.78.94.94,0,0,0,.47.51,5.92,5.92,0,0,1,1.24,1c.34.31.62.37.58.48a.52.52,0,0,1-.65.29,3.83,3.83,0,0,1-.79-.36,4.72,4.72,0,0,0,.88,1.29c.83.87.9,1.43-.62,1.56-1,.08-1.76-.45-2.64-2.5a17.39,17.39,0,0,1-.85-2.31C172.94,350.42,172.57,348.61,172.32,347.35Z" style="fill:#b16668"></path><path d="M170.15,339a5.21,5.21,0,0,1,2.58.41,2.25,2.25,0,0,1,1.12,1.86c.19.94.5,3.41.5,3.41s-.52,1.14-2.83.67Z" style="fill:#263238"></path><path d="M163.56,375.76s-.12,0-.49.23a3.91,3.91,0,0,0-1.08,1,2.08,2.08,0,0,0,.48,1.63,3.41,3.41,0,0,1,.57,1.91,3.15,3.15,0,0,0,1.2,2.25c.62.43,1.39.87,1.73.76s.37-.54-.07-2.44a23.21,23.21,0,0,1-.78-3.83Z" style="fill:#263238"></path><path d="M163.83,375.4l-.41.55a.72.72,0,0,0-.13.6,1.58,1.58,0,0,0,.54.95.86.86,0,0,0,.57.17,1,1,0,0,0,.72-.39l.32-.43Z" style="fill:#b16668"></path><path d="M173.55,351.85l-2.39.9-2,3.56h.13l1.06,8.36a7.49,7.49,0,0,0-2.1,2.15c-.88,1.36-4.38,8.58-4.38,8.58s.41,1.61,1.61,1.45c0,0,1.86-2.32,3.86-4.86a66.21,66.21,0,0,0,4.74-6.36C175,362.39,173.55,351.85,173.55,351.85Z" style="fill:#4650DD"></path><path d="M168.21,366.82c-.88,1.36-4.38,8.58-4.38,8.58s.41,1.61,1.61,1.45c0,0,1.86-2.32,3.86-4.86Z" style="fill:#4650DD"></path><path d="M168.21,366.82c-.88,1.36-4.38,8.58-4.38,8.58s.41,1.61,1.61,1.45c0,0,1.86-2.32,3.86-4.86Z" style="opacity:0.2"></path><path d="M168.5,380.58a7.84,7.84,0,0,1,1.88-1.05,7.3,7.3,0,0,1,.92.08,3.75,3.75,0,0,0,.82,0,11,11,0,0,0,1.69-.51,2.39,2.39,0,0,1,.74-.2c.43,0,.77,0,.86.5a1.41,1.41,0,0,1,0,.46A2.8,2.8,0,0,1,174,382c-.35.17-.81.29-1.18.43a9.87,9.87,0,0,0-1.63.59c-.79.51-1.54,1-2.48.5a1.21,1.21,0,0,1-.73-.94C167.85,382,168.49,381.11,168.5,380.58Z" style="fill:#263238"></path><path d="M173.26,351.41,164,352c-.66,2.11-.65,4,.08,8.1a54.39,54.39,0,0,0,2.16,7.77,7.74,7.74,0,0,0-.06,4.28c.76,2.51,2.21,8.86,2.21,8.86a7.51,7.51,0,0,1,2.31-1.47s-.45-3.83-.67-6.37-.35-4.66-.43-6.23c-.13-2.5-.49-10.63-.49-10.63h.13s3.39-1.24,4-4Z" style="fill:#4650DD"></path><path d="M169.12,356.31a13.38,13.38,0,0,0,3.09-2l-2.4,2.25.43,7.53Z" style="opacity:0.2"></path><path d="M160.82,349.56a70.44,70.44,0,0,1,1.54-8.37,2,2,0,0,1,1.65-1.62h0c2.63,1.42,2.61,3.31.37,5.58,0,0-.94,3.68-1.23,5.47a25.29,25.29,0,0,0-.44,4.89,1,1,0,0,0,.29.63,5.2,5.2,0,0,1,.9,1.33c.24.4.49.53.42.63a.52.52,0,0,1-.7.09,3.62,3.62,0,0,1-.66-.57,5,5,0,0,0,.47,1.48c.54,1.07.45,1.63-1,1.32-.94-.2-1.56-.94-1.81-3.16a18.25,18.25,0,0,1-.15-2.46C160.53,352.68,160.7,350.84,160.82,349.56Z" style="fill:#b16668"></path><path d="M166.85,339.1l-2.84.47c2.63,1.85.37,5.58.37,5.58l1.4,3.89a16.44,16.44,0,0,0-1.77,3c.86.75,6,2.52,9.54-.15,0,0-.2-1.41-.62-3.54.72-3.46.92-4.68.71-5.49-.59-2.28-1.94-3.73-3.48-3.82Z" style="fill:#455a64"></path><path d="M172,330.52c.5.3,1.12,1.56,1.06,4.21-.05,2.25-.78,2.81-1.15,3a3.89,3.89,0,0,1-1.75-.05V339s.94,1.1.88,1.72-1.36.77-2.25.16a7.11,7.11,0,0,1-1.64-1.78l0-3.1s-.4.39-1.09-.2a1.29,1.29,0,0,1-.31-1.78,1,1,0,0,1,1.56.31,5.4,5.4,0,0,0,2.55-.76A4.1,4.1,0,0,0,172,330.52Z" style="fill:#b16668"></path><path d="M170.54,334.17a.28.28,0,1,1-.3-.28A.29.29,0,0,1,170.54,334.17Z" style="fill:#263238"></path><path d="M170.62,336.08l.65.2a.34.34,0,0,1-.43.24A.35.35,0,0,1,170.62,336.08Z" style="fill:#9a4a4d"></path><path d="M172.86,333.3l-.57-.39a.32.32,0,0,1,.47-.1A.36.36,0,0,1,172.86,333.3Z" style="fill:#263238"></path><path d="M172.73,334a.29.29,0,1,1-.57,0,.28.28,0,0,1,.27-.3A.29.29,0,0,1,172.73,334Z" style="fill:#263238"></path><polygon points="171.39 333.8 171.44 335.5 172.33 335.23 171.39 333.8" style="fill:#9a4a4d"></polygon><path d="M170.15,337.65c-.73-.1-2.21-.53-2.44-1.11a1.46,1.46,0,0,0,.52.75,7.8,7.8,0,0,0,1.92.81Z" style="fill:#9a4a4d"></path><polygon points="165.03 346.97 167.01 349.65 165.78 349.04 165.03 346.97" style="fill:#263238"></polygon><path d="M165.67,328.14a2.11,2.11,0,1,1-2.69.52A2,2,0,0,1,165.67,328.14Z" style="fill:#263238"></path><path d="M164,339.57c-.41.1-1.46,0-2,2.08s-.88,4.08-.88,4.08a2.86,2.86,0,0,0,3,.85s.68-2.08,1.12-3.45S165.44,340.07,164,339.57Z" style="fill:#263238"></path></g><g id="freepik--character-1--inject-4"><path d="M94.9,305.52a27.94,27.94,0,0,1-.36-7.06.26.26,0,0,1,.49-.11l1.81,3.35s.21,2.46.44,4.14a22.9,22.9,0,0,0,.93,4.5.94.94,0,0,0,.43.49,5,5,0,0,1,1.17.95c.32.29.58.35.55.45a.5.5,0,0,1-.61.27,3.57,3.57,0,0,1-.75-.33,4.62,4.62,0,0,0,.83,1.2c.78.82.85,1.35-.58,1.47-.9.08-1.65-.42-2.48-2.34a17.84,17.84,0,0,1-.8-2.17C95.48,308.4,95.14,306.7,94.9,305.52Z" style="fill:#ffa8a7"></path><path d="M92.57,297.43c1.37,0,3,.44,3.68,1.7a21.94,21.94,0,0,1,1.17,5s-.52,1.12-2.44,1Z" style="fill:#4650DD"></path><path d="M92.57,297.43c1.37,0,3,.44,3.68,1.7a21.94,21.94,0,0,1,1.17,5s-.52,1.12-2.44,1Z" style="opacity:0.2"></path><path d="M81.62,331.19c-.34-.17-.56.26-.87.61a2.33,2.33,0,0,0-.6.91,1.89,1.89,0,0,0,.7,1.42,2.23,2.23,0,0,1,1,1.39,1.89,1.89,0,0,0,1.27,1.6,3.21,3.21,0,0,0,2.48,0c.48-.31,0-.65-.63-1.61-.87-1.25-1.55-2.15-1.55-3.32Z" style="fill:#263238"></path><path d="M82.32,330.17l-.72,1.05a1,1,0,0,0,.24,1.4l0,0a1.08,1.08,0,0,0,1.37-.22l1.13-1.22Z" style="fill:#ffa8a7"></path><path d="M95.54,309.58c0,1.35-.34,6.78-1.27,9.18s-1.46,3.9-1.75,4.4-8.71,8.7-8.71,8.7a1.85,1.85,0,0,1-1.66-1.49s3.45-5.87,4.2-7.07a16.67,16.67,0,0,1,3.39-3.05l-.24-10.51Z" style="fill:#37474f"></path><rect x="93.36" y="335.39" width="1.82" height="2.66" transform="translate(260.65 644.27) rotate(167.23)" style="fill:#ffa8a7"></rect><path d="M95.54,309.58H87a31,31,0,0,0-.32,3.77c-.07,3.7,3.38,10.42,3.38,10.42a13.82,13.82,0,0,0,.22,4.48,79.16,79.16,0,0,0,2.81,7.94,2.41,2.41,0,0,0,1.93-.56s-1.14-10.13-1.45-12.73c-.33-2.81-1.18-7.94-1.18-7.94a13.4,13.4,0,0,0,1.53-1.83,9.11,9.11,0,0,0,1.62-3.55" style="fill:#37474f"></path><path d="M83.61,307.59c.39-3.95,1.82-6.85,2-7.85l1.17,4.9a36,36,0,0,0-1,3.95,23.63,23.63,0,0,0-.42,4.58.91.91,0,0,0,.28.58A4.86,4.86,0,0,1,86.5,315c.23.37.46.5.4.58a.49.49,0,0,1-.66.09,3.65,3.65,0,0,1-.62-.54,4.54,4.54,0,0,0,.44,1.39c.51,1,.43,1.54-1,1.24-.88-.19-1.46-.88-1.69-3a16.19,16.19,0,0,1-.14-2.31C83.34,310.52,83.5,308.79,83.61,307.59Z" style="fill:#ffa8a7"></path><path d="M89.75,297.51c-1.64.4-3.87.91-4.52,2.68a52.89,52.89,0,0,0-1.34,5.14,3.14,3.14,0,0,0,2.73.82l.38-1.33v4.76c1.28,1.4,5.74,2.05,8.54,0v-8.89a3.06,3.06,0,0,0-3-3.26Z" style="fill:#4650DD"></path><polygon points="87 304.82 87.82 302.24 87 305.98 87 304.82" style="opacity:0.2"></polygon><path d="M95.84,291.53A2.56,2.56,0,1,1,93.28,289,2.56,2.56,0,0,1,95.84,291.53Z" style="fill:#263238"></path><path d="M89.13,290.24a1,1,0,0,0-.8.28c-.35.36-.27,1,0,2.51l1.07.13Z" style="fill:#263238"></path><path d="M89.63,293.16c-.15.09-.38-.21-.58-.42a.69.69,0,0,0-1.15.19c-.32.68.41,1.59.85,1.89a.74.74,0,0,0,.88.08l.12,2.61a2.8,2.8,0,0,0,2.1,1.6c1.54.21,1.22-1.06.72-1.68v-.95a3.67,3.67,0,0,0,1.17.06,3,3,0,0,0,1-1.28,5.83,5.83,0,0,0,.41-4.19c-.55-2.34-3.07-2.41-4.57-1.47S89.63,293.16,89.63,293.16Z" style="fill:#ffa8a7"></path><path d="M89.63,293.42c-.07,0-.38-.5-.58-.68s.08-2.5.08-2.5a1.55,1.55,0,0,1,.27-1.42c.54-.57,1.59-.47,2.35-.5a23.25,23.25,0,0,1,3.44.08.73.73,0,0,1,.52.2.63.63,0,0,1,.06.52A2.38,2.38,0,0,1,93.63,291a10.46,10.46,0,0,1-3-.45c-.29,0-.35.24-.51,1S89.9,293.42,89.63,293.42Z" style="fill:#263238"></path><path d="M89.14,290.41l-1-.51a.53.53,0,0,1,.72-.24A.57.57,0,0,1,89.14,290.41Z" style="fill:#263238"></path><path d="M92.56,296.48a11.07,11.07,0,0,1-1.91-.55,1.6,1.6,0,0,1-.69-.68,2.18,2.18,0,0,0,.39.8c.36.47,2.21.81,2.21.81Z" style="fill:#f28f8f"></path><path d="M92.61,293.1a.29.29,0,1,1-.57,0,.29.29,0,1,1,.57,0Z" style="fill:#263238"></path><path d="M92.31,292l-.61.34a.37.37,0,0,1,.14-.49A.34.34,0,0,1,92.31,292Z" style="fill:#263238"></path><path d="M92.44,295l.65.24a.35.35,0,0,1-.45.22A.35.35,0,0,1,92.44,295Z" style="fill:#f28f8f"></path><path d="M95.15,292.27l-.56-.43a.34.34,0,0,1,.49-.08A.39.39,0,0,1,95.15,292.27Z" style="fill:#263238"></path><path d="M95,293a.29.29,0,1,1-.57,0,.29.29,0,1,1,.57,0Z" style="fill:#263238"></path><polygon points="93.64 292.99 93.37 294.68 94.31 294.57 93.64 292.99" style="fill:#f28f8f"></polygon><path d="M95.26,336.94l-.06-.26c.19,0,1,1.36,1.78,1.94s1.62,1,2,1.29-.23,1.16-1.51,1.23a3.86,3.86,0,0,1-2.14-.5c-.36-.33-.62-.89-.9-1.14s-.85-.45-1-.76a2,2,0,0,1-.11-1c0-.33,0-.7.13-.69l0,.19a2.24,2.24,0,0,0,1.08.24C94.85,337.51,95.41,337.44,95.26,336.94Z" style="fill:#263238"></path><path d="M93.35,321.18s-.76-5.38-1-6.22a8.17,8.17,0,0,0,1.68-1.2,14.25,14.25,0,0,1-1.15,1.44Z" style="fill:#263238"></path><path d="M88.78,321a24.08,24.08,0,0,0,1.28,2.77s-.1,1.73-.08,2.08l-.48.41a11.18,11.18,0,0,1,.21-2.33A14.26,14.26,0,0,1,88.78,321Z" style="fill:#263238"></path></g></svg>