<svg xmlns="http://www.w3.org/2000/svg" xmlns:xlink="http://www.w3.org/1999/xlink" x="0px" y="0px" viewBox="0 0 2340 1560" style="enable-background:new 0 0 2340 1560;" xml:space="preserve">
<style type="text/css">
	.st0{opacity:0.34;fill:#A4CFFD;}
	.st1{opacity:0.8;fill:none;stroke:#FFFFFF;stroke-width:2.8667;stroke-linecap:round;stroke-linejoin:round;stroke-miterlimit:10;}
	.st2{fill:#FFFFFF;}
	.st3{fill:#F53F0A;stroke:#F53F0A;stroke-width:6.3067;stroke-miterlimit:10;}
	.st4{fill:none;stroke:#4EBDFA;stroke-width:6.3067;stroke-miterlimit:10;}
	.st5{fill:#FCC950;stroke:#FCC950;stroke-width:6.3067;stroke-miterlimit:10;}
	.st6{fill:none;stroke:#FCC950;stroke-width:6.3067;stroke-miterlimit:10;}
	.st7{fill:#4BCCA5;stroke:#4BCCA5;stroke-width:6.3067;stroke-miterlimit:10;}
	.st8{fill:none;stroke:#4BCCA5;stroke-width:6.3067;stroke-miterlimit:10;}
	.st9{fill:#4EBDFA;stroke:#4EBDFA;stroke-width:6.3067;stroke-miterlimit:10;}
	.st10{opacity:0.35;}
	.st11{fill:none;stroke:#5873CA;stroke-width:1.1467;stroke-linecap:round;stroke-linejoin:round;stroke-miterlimit:10;}
	.st12{fill:#FCC950;}
	.st13{fill:#2D100A;}
	.st14{fill:none;stroke:#2D100A;stroke-width:1.72;stroke-linecap:round;stroke-linejoin:round;stroke-miterlimit:10;}
	.st15{fill:none;stroke:#FFFFFF;stroke-width:1.72;stroke-linecap:round;stroke-linejoin:round;stroke-miterlimit:10;}
	.st16{fill:#FFFFFF;stroke:#2D100A;stroke-width:1.1467;stroke-linecap:round;stroke-linejoin:round;stroke-miterlimit:10;}
	.st17{fill:none;stroke:#2D100A;stroke-width:1.1467;stroke-linecap:round;stroke-linejoin:round;stroke-miterlimit:10;}
	.st18{fill:#4BCCA5;}
	.st19{fill:#000100;}
	.st20{fill:#4EBDFA;}
	.st21{fill:#566FC8;}
	.st22{fill:none;stroke:#566FC8;stroke-width:1.1467;stroke-linecap:round;stroke-linejoin:round;stroke-miterlimit:10;}
	.st23{fill:none;stroke:#3F5DAF;stroke-width:1.1467;stroke-linecap:round;stroke-linejoin:round;stroke-miterlimit:10;}
	.st24{fill:#F0AF80;}
	.st25{fill:#ED6E0F;}
	
		.st26{clip-path:url(#XMLID_5_);fill:none;stroke:#3E9AE5;stroke-width:1.1467;stroke-linecap:round;stroke-linejoin:round;stroke-miterlimit:10;}
	.st27{fill:#F5EADE;}
	.st28{fill:none;stroke:#566FC8;stroke-width:1.72;stroke-linecap:round;stroke-linejoin:round;stroke-miterlimit:10;}
	.st29{fill:none;stroke:#2D100A;stroke-width:0.5733;stroke-linecap:round;stroke-linejoin:round;stroke-miterlimit:10;}
	.st30{font-family:'Ultra-Regular';}
	.st31{font-size:108.3907px;}
	.st32{fill:#F53F0A;}
	.st33{fill:none;stroke:#2D100A;stroke-width:1.8626;stroke-linecap:round;stroke-linejoin:round;stroke-miterlimit:10;}
	.st34{fill:#FBC8C9;}
	.st35{fill:#54352F;}
	.st36{fill:none;stroke:#3F201C;stroke-width:1.1467;stroke-linecap:round;stroke-linejoin:round;stroke-miterlimit:10;}
	.st37{fill:none;stroke:#E36251;stroke-width:1.72;stroke-linecap:round;stroke-linejoin:round;stroke-miterlimit:10;}
	.st38{fill:none;stroke:#54352F;stroke-width:1.1467;stroke-linecap:round;stroke-linejoin:round;stroke-miterlimit:10;}
	.st39{fill:none;stroke:#000100;stroke-width:1.72;stroke-linecap:round;stroke-linejoin:round;stroke-miterlimit:10;}
	.st40{fill:#F8C3A1;}
	.st41{fill:none;stroke:#FFFFFF;stroke-width:1.1467;stroke-linecap:round;stroke-linejoin:round;stroke-miterlimit:10;}
	.st42{fill:none;stroke:#54352F;stroke-width:0.5733;stroke-linecap:round;stroke-linejoin:round;stroke-miterlimit:10;}
	
		.st43{clip-path:url(#XMLID_6_);fill:none;stroke:#E05368;stroke-width:2.2933;stroke-linecap:round;stroke-linejoin:round;stroke-miterlimit:10;}
	.st44{fill:#F47A88;}
	.st45{fill:none;stroke:#4BCCA5;stroke-width:3.44;stroke-linecap:round;stroke-linejoin:round;stroke-miterlimit:10;}
	.st46{fill:none;stroke:#4BCCA5;stroke-width:1.1467;stroke-linecap:round;stroke-linejoin:round;stroke-miterlimit:10;}
	.st47{fill:#31B589;}
	.st48{fill:none;stroke:#FFFFFF;stroke-width:0.5733;stroke-linecap:round;stroke-linejoin:round;stroke-miterlimit:10;}
	.st49{clip-path:url(#XMLID_7_);fill:#FCC950;}
</style>
<g id="Background">
</g>
<g id="Character">
	<rect x="1148.6" y="942.7" class="st0" width="757" height="19"></rect>
	<g>
		
			<rect x="1175.4" y="245.3" transform="matrix(-1 -4.488999e-11 4.488999e-11 -1 2574.7205 1188.1045)" class="st0" width="223.9" height="697.6"></rect>
		
			<rect x="1416.7" y="245.3" transform="matrix(-1 -4.488999e-11 4.488999e-11 -1 3057.3557 1188.1045)" class="st0" width="223.9" height="697.6"></rect>
		
			<rect x="1658.1" y="245.3" transform="matrix(-1 -4.493085e-11 4.493085e-11 -1 3539.9907 1188.1045)" class="st0" width="223.9" height="697.6"></rect>
		
			<rect x="1195" y="262.1" transform="matrix(-1 -4.487400e-11 4.487400e-11 -1 2574.7205 1188.1045)" class="st1" width="184.8" height="663.9"></rect>
		
			<rect x="1436.3" y="262.1" transform="matrix(-1 -4.486423e-11 4.486423e-11 -1 3057.3557 1188.1045)" class="st1" width="184.8" height="663.9"></rect>
		
			<rect x="1677.6" y="262.1" transform="matrix(-1 -4.481494e-11 4.481494e-11 -1 3539.9907 1188.1045)" class="st1" width="184.8" height="663.9"></rect>
		<g>
			<path class="st2" d="M1399.3,535.5h-223.9c44-2.5,39.8-50,79-55.2c55.5-7.3,40.9,14.8,105.8,10.3c16.5-1.1,28-11.5,39.1-23V535.5     z"></path>
			<path class="st2" d="M1416.7,450.1c10.6-9.3,22.7-16,39.5-14.5c45.5,4,60.1,47.8,105.6,47.8s68.9,52.1,68.9,52.1h-214V450.1z"></path>
		</g>
		<path class="st2" d="M1670.8,407.9h200.9c0,0-10-22.3-29.5-22.3c-19.5,0-25.7-18.8-45.3-20.5s-24.2,22.4-41.2,23.6    c-27.8,1.9-21.5-7.6-45.3-4.4C1693.5,386.4,1689.6,406.8,1670.8,407.9z"></path>
		<path class="st2" d="M1133.5,327.7h230.1c0,0-11.5-25.6-33.8-25.6c-22.3,0-29.5-21.5-51.8-23.5c-22.3-2-27.7,25.7-47.2,27    c-31.9,2.2-24.7-8.7-51.9-5.1C1159.6,303.1,1155.2,326.5,1133.5,327.7z"></path>
	</g>
	<g>
		<path class="st3" d="M570.4,919.4h-81.6c-6.6,0-11.9-5.5-11.9-12.3v0c0-6.8,5.3-12.3,11.9-12.3h81.6V919.4z"></path>
		<path class="st2" d="M624.6,919.4H543c-6.6,0-11.9-5.5-11.9-12.3v0c0-6.8,5.3-12.3,11.9-12.3h81.6V919.4z"></path>
		<path class="st4" d="M624.6,919.4H543c-6.6,0-11.9-5.5-11.9-12.3v0c0-6.8,5.3-12.3,11.9-12.3h81.6"></path>
	</g>
	<g>
		<path class="st5" d="M582.2,889.6h-81.6c-6.6,0-11.9-5.5-11.9-12.3v0c0-6.8,5.3-12.3,11.9-12.3h81.6V889.6z"></path>
		<path class="st2" d="M636.4,889.6h-81.6c-6.6,0-11.9-5.5-11.9-12.3v0c0-6.8,5.3-12.3,11.9-12.3h81.6V889.6z"></path>
		<path class="st6" d="M636.4,889.6h-81.6c-6.6,0-11.9-5.5-11.9-12.3v0c0-6.8,5.3-12.3,11.9-12.3h81.6"></path>
	</g>
	<g>
		<path class="st7" d="M577.3,859.3h-81.6c-6.6,0-11.9-5.5-11.9-12.3v0c0-6.8,5.3-12.3,11.9-12.3h81.6V859.3z"></path>
		<path class="st2" d="M631.5,859.3h-81.6c-6.6,0-11.9-5.5-11.9-12.3v0c0-6.8,5.3-12.3,11.9-12.3h81.6V859.3z"></path>
		<path class="st8" d="M631.5,859.3h-81.6c-6.6,0-11.9-5.5-11.9-12.3v0c0-6.8,5.3-12.3,11.9-12.3h81.6"></path>
	</g>
	<g>
		<path class="st9" d="M1854,877h-81.6c-6.6,0-11.9-5.5-11.9-12.3l0,0c0-6.8,5.3-12.3,11.9-12.3h81.6V877z"></path>
		<path class="st2" d="M1908.2,877h-81.6c-6.6,0-11.9-5.5-11.9-12.3l0,0c0-6.8,5.3-12.3,11.9-12.3h81.6V877z"></path>
		<path class="st4" d="M1908.2,877h-81.6c-6.6,0-11.9-5.5-11.9-12.3l0,0c0-6.8,5.3-12.3,11.9-12.3h81.6"></path>
	</g>
	<g>
		<path class="st5" d="M1854,847.2h-81.6c-6.6,0-11.9-5.5-11.9-12.3l0,0c0-6.8,5.3-12.3,11.9-12.3h81.6V847.2z"></path>
		<path class="st2" d="M1908.2,847.2h-81.6c-6.6,0-11.9-5.5-11.9-12.3l0,0c0-6.8,5.3-12.3,11.9-12.3h81.6V847.2z"></path>
		<path class="st6" d="M1908.2,847.2h-81.6c-6.6,0-11.9-5.5-11.9-12.3l0,0c0-6.8,5.3-12.3,11.9-12.3h81.6"></path>
	</g>
	<g>
		<path class="st7" d="M1854,816.9h-81.6c-6.6,0-11.9-5.5-11.9-12.3l0,0c0-6.8,5.3-12.3,11.9-12.3h81.6V816.9z"></path>
		<path class="st2" d="M1908.2,816.9h-81.6c-6.6,0-11.9-5.5-11.9-12.3l0,0c0-6.8,5.3-12.3,11.9-12.3h81.6V816.9z"></path>
		<path class="st8" d="M1908.2,816.9h-81.6c-6.6,0-11.9-5.5-11.9-12.3l0,0c0-6.8,5.3-12.3,11.9-12.3h81.6"></path>
	</g>
	<g class="st10">
		
			<rect x="1740.6" y="1122.3" transform="matrix(-1 -1.224647e-16 1.224647e-16 -1 3558.2561 2271.4033)" class="st11" width="77" height="26.8"></rect>
		
			<rect x="1663.7" y="1122.3" transform="matrix(-1 -1.224647e-16 1.224647e-16 -1 3404.3064 2271.4033)" class="st11" width="77" height="26.8"></rect>
		<polyline class="st11" points="1702.2,1175.9 1702.2,1149.1 1779.1,1149.1 1779.1,1175.9   "></polyline>
		<line class="st11" x1="1663.7" y1="1175.9" x2="1740.6" y2="1175.9"></line>
		<polyline class="st11" points="1701.3,1095.5 1701.3,1122.3 1778.3,1122.3 1778.3,1095.5   "></polyline>
		<line class="st11" x1="1739.8" y1="1095.5" x2="1816.8" y2="1095.5"></line>
	</g>
	<g>
		<path class="st12" d="M1538.5,962.6c0,0-18.9,31.3-70.1,36.1c0,0-31.3-1.1-32.4,27h201.2c0,0,62.9-34,61-112.1    c-0.5-21.5-12.8-41.4-32.4-50.3c-13.4-6.1-30.8-7.6-50.8,5.5C1577.4,893.2,1576.8,924.7,1538.5,962.6z"></path>
		<rect x="1490.6" y="1025.7" class="st13" width="117.4" height="8"></rect>
		<line class="st14" x1="1549.3" y1="1033.7" x2="1549.3" y2="1312.2"></line>
		<path class="st13" d="M1549.3,1297.2c0,0-17.7,63.7-58.7,73.4h58.7V1297.2z"></path>
		<path class="st13" d="M1549.3,1297.2c0,0,17.7,63.7,58.7,73.4h-58.7V1297.2z"></path>
		<path class="st15" d="M1459.3,999.6h164.7c0,0,61.3-26,57.1-126"></path>
	</g>
	<g>
		<rect x="1091.9" y="878.7" class="st16" width="908.5" height="22.7"></rect>
		<g>
			<polyline class="st17" points="1145.1,901.4 1059.2,1369.9 1040.8,1369.9    "></polyline>
			<polyline class="st17" points="1947.1,901.4 2033,1369.9 2051.4,1369.9    "></polyline>
		</g>
		<line class="st17" x1="1091.9" y1="901.4" x2="2000.3" y2="901.4"></line>
	</g>
	<g>
		<path class="st18" d="M1140.3,984.4h122.4c0,0,4.2,28.5-25.1,27.9h-121c-14.6,0-28-8.2-34.6-21.2l-50.7-99.4    c-6.1-11.9-5-26.4,3.4-36.7c2.9-3.5,6.6-6.5,11.5-8.5l59.5,116.6C1112.3,976.2,1125.7,984.4,1140.3,984.4z"></path>
		<rect x="1093.9" y="1005.8" class="st13" width="117.4" height="8"></rect>
		<line class="st14" x1="1152.6" y1="1013.8" x2="1152.6" y2="1292.4"></line>
	</g>
	<g>
		<g>
			<polygon class="st18" points="382.7,1369.9 364.4,1369.9 379.1,1244.8 415.6,1244.8    "></polygon>
			<polygon class="st18" points="645.4,1369.9 663.6,1369.9 648.9,1244.8 612.4,1244.8    "></polygon>
		</g>
		<g>
			<path class="st19" d="M409.1,1269.4l6.5-24.6h-36.5l-3,25.8C387.1,1270.1,398.1,1269.7,409.1,1269.4z"></path>
			<path class="st19" d="M650.5,1258l-1.6-13.3h-36.5l3.8,14.4C627.6,1258.6,639,1258.3,650.5,1258z"></path>
		</g>
		<rect x="361.1" y="920" class="st16" width="305.7" height="324.8"></rect>
		<rect x="379.1" y="936.1" class="st20" width="269.9" height="292.5"></rect>
		<rect x="396.6" y="953.9" class="st2" width="234.8" height="70.9"></rect>
		<rect x="396.6" y="1044.8" class="st2" width="234.8" height="70.9"></rect>
		<rect x="396.6" y="1135.7" class="st2" width="234.8" height="70.9"></rect>
		<rect x="403.2" y="960" class="st12" width="221.2" height="57.3"></rect>
		<rect x="403.2" y="1051.6" class="st12" width="221.2" height="57.3"></rect>
		<rect x="403.2" y="1143.2" class="st12" width="221.2" height="57.3"></rect>
		<polygon class="st19" points="396.6,1115.7 395.9,1121.6 631.4,1115.7   "></polygon>
		<polygon class="st19" points="396.6,1024.8 395.9,1030.7 631.4,1024.8   "></polygon>
		<polygon class="st19" points="396.6,1206.6 395.9,1212.5 631.4,1206.6   "></polygon>
		<circle class="st2" cx="514" cy="989.4" r="7.4"></circle>
		<circle class="st2" cx="514" cy="1082.4" r="7.4"></circle>
		<circle class="st2" cx="514" cy="1175.4" r="7.4"></circle>
	</g>
	<g>
		<path class="st21" d="M1635.3,429.4c-6.6-17.1-43.6-12.8-53.8,1.4c-10.2,14.2-6.2,26.6-17.1,36.2c-21.4,18.8-22.2,28.5-11.5,38.9    c10.8,10.5,47.9,15.9,85.6,8.7c36.3-6.8,31.4-29.8,26.9-39.8C1658.3,458.9,1647.4,461,1635.3,429.4z"></path>
		<path class="st22" d="M1581.1,438.4c0,0-10.4,23.4-28.4,34.7c-24,15-11.1,37.6,22.8,36.2"></path>
		<path class="st23" d="M1602.5,512.5c-39.4-1.5-45.1-11.1-35.4-31c8.1-16.6,8.4-38.8,30.3-55.2c0,0,15.9-6.7,23.2,0    s13.7,27.4,24.6,33.2c10.9,5.8,16.9,47.4-19.6,51.2"></path>
		<path class="st23" d="M1577.1,476.1c0,0-4.3,17.8,5.2,23.5s9.5,5.8,9.5,5.8"></path>
		<path class="st24" d="M1591,1229.4l2.2,108.6l102.7,22.7l-10.8-12l-32.4-12.5c-10.6-4.1-17.8-14.1-18.4-25.4l19.1-81.4H1591z"></path>
		<path class="st25" d="M1598.2,1330.5c6,4.2,33.3,21.2,83,21.2c0,0,5.4-0.7,3.9-2.9c0,0,37.1,12.1,41.1,21.1h-68.6l-27.9-9.6    l-1.1,9.6h-31l-6.5-34.9c-0.5-2.4,1.1-4.8,3.5-5.2c0.1,0,0.1,0,0.2,0C1596,1329.5,1597.2,1329.8,1598.2,1330.5z"></path>
		<path class="st24" d="M1463,1229.4l-25.2,108.6l-102.7,22.7l10.8-12l32.4-12.5c10.6-4.1,17.8-14.1,18.4-25.4l4-81.4H1463z"></path>
		<path class="st24" d="M1804.2,549.2l22-11.1l53.8-1.8c0,0,2.2,8.9-16.8,9l-26.1,6.8c0,0,14.5,4.7,18.4,8.5l4.2,22.2l4.4,11.6    c0,0-2.3,1.9-6.6-1.6l1.3,5.8c0,0-4.9,1.2-7.8-1.9l1.7,7.4c0,0-4.2,2.3-7.7-1.9l-8.7-18c0,0-12.2,9-25.5,12    c-7.2-2.1-21.5-14.5-30.6-18.5l9.6-15C1793.3,556.9,1798.2,552.2,1804.2,549.2z"></path>
		<path class="st25" d="M1625.7,521.8c0,0,20.2-5.8,36.4-3.2c27.5,4.3,34.4,20.1,37.6,59.4l10.2,67.4l70.4-67.7l52.6,15.5    l-97.1,147.1c-19.9,30.2-62,35.5-88.8,11.2l-13.2-12l-150.2-35.3l5.7-47.4l102.6-135.1H1625.7z"></path>
		<g>
			<defs>
				<path id="XMLID_2_" d="M1575.9,681.6h-29.1c0,0-50.7,50.3-84.8,197.6c-32.9,142-79.8,151-103.5,403.8c0,0,67.1,36.2,148.1,4.7      c12.1-171.9,49.5-348.5,65.7-457.3l-4.9,464.3c0,0,75.1,12,125-37.1c-5.1-71.2-11-254.2-9.8-359.3      c0.7-56.9,13.8-188.7-51.2-216.7H1575.9z"></path>
			</defs>
			<use xlink:href="#XMLID_2_" style="overflow:visible;fill:#68B7FF;"></use>
			<clipPath id="XMLID_5_">
				<use xlink:href="#XMLID_2_" style="overflow:visible;"></use>
			</clipPath>
			<path class="st26" d="M1631.2,650.2c0,0-55.4,206.3-197.9,267.5"></path>
			<path class="st26" d="M1591.9,667.5c0,0-6.9,144-137.7,216.4"></path>
			<path class="st26" d="M1643.8,663.8c0,0-18.5,204.2-152,295.2s-157.5,195.4-149.9,243.7"></path>
			<path class="st26" d="M1692.3,718.9c0,0-114.6,221.1-183,295c-107,115.5-42.6,241.2,34.7,208.4     c77.4-32.7,171.9-162.4,171.9-162.4"></path>
			<path class="st26" d="M1575.9,681.6c0,0-29.6,100.9-121.7,137.4"></path>
			<path class="st26" d="M1719.8,1045.6c0,0-155.5,173.8-199.9,139.9s7.2-102.6,91.4-223.2c84.2-120.6,89.5-172.5,89.5-172.5"></path>
			<path class="st26" d="M1567.1,914.7c0,0-149.4,151.2-203.5,244.4"></path>
			<path class="st26" d="M1567.7,935.3c0,0-127.7,110.3-161.1,239.7c-44.7,173.1,137.5,125.7,137.5,125.7"></path>
			<path class="st26" d="M1711.3,890.7c0,0-165,182.6-154.5,210.1s195.7-167.2,195.7-167.2"></path>
			<path class="st26" d="M1713.4,1135.8c0,0-80.3,123.8-142.8,143.9"></path>
		</g>
		<path class="st13" d="M1584.1,730.8c23.9-10.1,47.9-20.2,72.2-29.4c-6.7-8.6-14.8-15.4-24.9-19.8h-84.6c0,0-23.1,22.9-48.5,83    C1527.3,754.4,1555.7,742.7,1584.1,730.8z"></path>
		<path class="st14" d="M1631.4,681.6l5.2-48.7c0,0,26.2-20,18-44"></path>
		<rect x="1590.7" y="658.1" class="st16" width="173.3" height="131.7"></rect>
		<rect x="1794" y="551.1" class="st16" width="173.3" height="131.7"></rect>
		<path class="st25" d="M1591.9,521.8c0,0-13-0.1-20.2-3.4s-43.6-11.2-59.9,7.3c-16.5,18.7-35.4,69.4-35.4,69.4l-53.9,131.3    c0,0-12.1,49.3,44.9,49.3l99.7-49.8l-14.5-53l-47.1,8.7L1591.9,521.8z"></path>
		<path class="st24" d="M1552.6,673l26.5-22.7l51.8-14.5c0,0,3,7.1-14.2,12.8l-23.7,12.8c0,0,15.3,1.2,19.9,3.9l9.4,20.5l7,10.2    c0,0-1.8,2.4-6.8,0l2.7,5.3c0,0-4.4,2.4-8,0l3.5,6.8c0,0-3.6,3.2-7.9,0l-12.7-15.4c0,0-3.2,4.9-19,8.9    c-5.1,1.3-10.7,7.1-17.5,11.8L1552.6,673z"></path>
		<path class="st24" d="M1633.3,447c0,0,6.3,57-25.2,56c-29.8-0.9-25.5-51.1-25.5-51.1s15.6-3.3,17.5-18.5    C1609,434.1,1613.1,452.2,1633.3,447z"></path>
		<path class="st24" d="M1629,466.8c0,0,5.3-11.7,11.4-9.4c6.1,2.3,3.2,22.1-11.7,22L1629,466.8z"></path>
		<path class="st24" d="M1586.1,466.8c0,0-5.3-11.7-11.4-9.4c-6.1,2.3-3.2,22.1,11.7,22L1586.1,466.8z"></path>
		<path class="st24" d="M1608.8,538.7L1608.8,538.7c-9.3,0-16.9-7.6-16.9-16.9v-35.6h33.8v35.6    C1625.7,531.2,1618.1,538.7,1608.8,538.7z"></path>
		<polygon class="st27" points="1591.9,515 1582.4,521.1 1587.3,559.1 1608.8,538.7   "></polygon>
		<polygon class="st27" points="1608.8,538.7 1628.7,557.5 1636.6,519.5 1625.7,515   "></polygon>
		<path class="st25" d="M1432.9,1330.5c-6,4.2-33.3,21.2-83,21.2c0,0-5.4-0.7-3.9-2.9c0,0-37.1,12.1-41.1,21.1h68.6l27.9-9.6    l1.1,9.6h31l6.5-34.9c0.5-2.4-1.1-4.8-3.5-5.2c-0.1,0-0.1,0-0.2,0C1435,1329.5,1433.8,1329.8,1432.9,1330.5z"></path>
		<polyline class="st14" points="1552.6,673 1504.7,688.3 1543.5,604.6 1537.3,581.9   "></polyline>
		<polygon class="st13" points="1563.7,713.3 1552.6,673 1567.1,710.8   "></polygon>
		<path class="st28" d="M1599.2,431.5c0,0,7.1-1.4,12.5,12.3c5.8,14.7,22.4,5.5,25.2,1.5"></path>
		<path class="st13" d="M1591.9,495.1c0,0,6.8,9.4,16.2,7.9c0,0-6.9,3.8-16.2-1.9V495.1z"></path>
		<path class="st2" d="M1586.4,461.7c0,0,13-3.8,16.1,8.8C1602.5,470.5,1591.9,475.6,1586.4,461.7z"></path>
		<path class="st2" d="M1628.7,461.7c0,0-13-3.8-16.1,8.8C1612.6,470.5,1623.2,475.6,1628.7,461.7z"></path>
		<ellipse class="st13" cx="1595.1" cy="466.4" rx="3.2" ry="4.6"></ellipse>
		<ellipse class="st13" cx="1620.6" cy="466.3" rx="3.2" ry="4.6"></ellipse>
		<path class="st29" d="M1602.5,470.5c0,0-3.2-12.5-16.1-8.8"></path>
		<path class="st29" d="M1612.6,470.5c0,0,3.2-12.5,16.1-8.8"></path>
		<line class="st29" x1="1577.1" y1="464.5" x2="1582.4" y2="470.9"></line>
		<line class="st29" x1="1636.6" y1="464.5" x2="1633.1" y2="470.9"></line>
		<path class="st29" d="M1606.8,472c0,0,5.5-0.9,2,5.9"></path>
		<path class="st13" d="M1611.6,483.9c-7.6,5.3-11.6-2.4-11.6-2.4L1611.6,483.9z"></path>
		<path class="st13" d="M1588,456.8c4.8-3,8.8-1.8,11.2-0.5c0.9,0.5,2.1-0.4,1.6-1.4c-0.4-1-1.2-2-2.5-2.3    c-7.4-1.8-10.8,4.4-10.8,4.4"></path>
		<path class="st13" d="M1629,456.8c-4.8-3-8.8-1.8-11.2-0.5c-0.9,0.5-2.1-0.4-1.6-1.4c0.4-1,1.2-2,2.5-2.3    c7.4-1.8,10.8,4.4,10.8,4.4"></path>
		<path class="st13" d="M1572.2,830.5l2.7-22.7c0,0,16.1,90.8-4.2,165.8L1572.2,830.5z"></path>
		<path class="st17" d="M1622.6,695.8l-11.6-18.1c-1.3-2.1-3.5-3.5-5.9-3.9l-5.3-0.9"></path>
		<path class="st17" d="M1617.3,701.2l-10.8-15.3c-1.3-1.9-3.4-3.2-5.7-3.6l-1.8-0.3"></path>
		<line class="st17" x1="1600.1" y1="692.6" x2="1601.9" y2="691.6"></line>
		<path class="st14" d="M1537.3,787.2c-2.8,0-62,41.4-62,41.4"></path>
		<line class="st14" x1="1509.3" y1="805.1" x2="1399.1" y2="1296.6"></line>
		<line class="st14" x1="1643.8" y1="797.2" x2="1677.3" y2="1270.2"></line>
		<path class="st13" d="M1397.5,1296.3c0,0,20.8,14.1,47,13l2-8.8C1446.5,1300.5,1423.2,1303.8,1397.5,1296.3z"></path>
		<path class="st13" d="M1639,1288.7c0,0-18.6,16.2-46.4,17l-0.2-9.7C1592.4,1296,1618,1295.7,1639,1288.7z"></path>
		<line class="st15" x1="1537.3" y1="677.9" x2="1550.9" y2="734.1"></line>
		<line class="st15" x1="1768.6" y1="588.9" x2="1794" y2="600.4"></line>
		<polygon class="st13" points="1794,581.7 1793.5,652.9 1786.4,663.8   "></polygon>
		<circle class="st27" cx="1607.6" cy="564.6" r="3.6"></circle>
		<circle class="st27" cx="1607.3" cy="588.9" r="3.6"></circle>
		<circle class="st27" cx="1607" cy="613.3" r="3.6"></circle>
		<text transform="matrix(1 0 0 1 1629.3906 764.5684)" class="st20 st30 st31">O</text>
		<g>
			<text transform="matrix(1 0 0 1 1834.3799 651.5928)" class="st32 st30 st31">U</text>
		</g>
		<rect x="1555" y="570.4" class="st2" width="31.4" height="11.2"></rect>
		<path class="st22" d="M1633.8,435.6c0,0.2,16.6,24.6,30.5,32.8c11.3,6.6,8.2,44.2-12.2,40.1"></path>
		<path class="st23" d="M1636.9,476.1c0,0,8.7,8.1,6.4,17.3c-2.3,9.3-17.7,13.5-17.7,13.5"></path>
		<path class="st23" d="M1596.6,424.6c0,0,0.8,7.4,4.3,9"></path>
		<path class="st23" d="M1582.6,452c13.7-6,15.1-22.9,15.1-22.9s7.8-4.4,12.2,0c4.5,4.4,7.7,17.9,23.4,17.9"></path>
	</g>
	<line class="st33" x1="253" y1="1369.9" x2="1955" y2="1369.9"></line>
	<g>
		<path class="st12" d="M1355.2,491.9l18.4,181.1c0,0,88.9,104.6,129.9,54c21.2-26.2-1.4-70.2-54.1-136.8c-5.1-1.3-9.9-0.7-9.9-0.7    l-29.4-61.8c-12.1-19.2-31.8-32.2-54.2-35.8L1355.2,491.9z"></path>
		<polygon class="st12" points="1315.7,491.9 1355.2,491.9 1381.2,748 1298.3,750.4 1296.5,491.9   "></polygon>
		<path class="st12" d="M1252.3,491.9h-29.7c0,0-28.2,0-53.2,49.4l-91,153.3c-9.2,18.4,3.7,81.4,54.7,61.5l63.4-48.1l-1.7-13.4    l31.7-34.6L1252.3,491.9z"></path>
		<polygon class="st12" points="1279.3,491.9 1244.4,491.9 1210,691.6 1206.4,750.4 1298.3,750.4 1296.5,491.9   "></polygon>
		<path class="st19" d="M1211.4,1314.3v55.6h-129.2c0,0-0.9-10.1,16.8-13s50.9-12.7,68.2-42.6H1211.4z"></path>
		<path class="st21" d="M1206.4,750.4l-61.1,564.8h81.5c0,0,21.7-141,25.3-205.2c11-66.9,39.5-240,39.5-240l20.8,444.3h76.3    c0,0,8.9-470.7-7.5-566.3L1206.4,750.4z"></path>
		<path class="st19" d="M1333.7,1314.3c0,0-6.6,35.5-6.6,55.6h61.9c0,0,1.3-7.4-10.5-24.5c-5.3-7.8-6-31-6-31H1333.7z"></path>
		<path class="st34" d="M1314.4,482V458l-16.9-1.1l-16.9,1.1V482c0,0,1.5,8.1-13.3,9.8c0,0,19.4,23.1,30.2,32.2    c12.9-6.9,31.7-31.1,31.7-31.1C1314.3,491.2,1314.4,482,1314.4,482z"></path>
		<path class="st19" d="M1280.5,458c0,0,7.9,9.9,18.1,8.4c10.3-1.5,15.1-8.5,15.1-8.5s-3.4,14.2-16.4,15.1    c-11,0.8-16.9-5.1-16.9-5.1V458z"></path>
		<path class="st35" d="M1328.2,436.7c0,0,0.8-14.2,4.8-23.6c4.8-11.2,4.5-26-4.8-26.8c-8.1,1.8-22.5-11.6-33.3-15    c-19.4-6-36.2,2.6-28.3,20.3c0,0-3.9,0.9-2.8,9.3c1.3,9.9,3,27.8,7.4,39.3L1328.2,436.7z"></path>
		<path class="st34" d="M1269.7,427.7c3.8,38.4,26.3,40,26.3,40c30.9,0,29.7-46.9,29.7-46.9s-0.4-19.2-4.8-23.4    c-20.6,16-42.7,4.1-47.2,10.5C1272.5,418,1271.3,421.3,1269.7,427.7z"></path>
		<path class="st34" d="M1325.5,427.7c0,0,4.2-2.9,7.6,0s2.4,18.1-13.8,20.9L1325.5,427.7z"></path>
		<path class="st34" d="M1269.7,427.7c0,0-4.2-2.9-7.6,0s-2.4,18.1,13.8,20.9L1269.7,427.7z"></path>
		<path class="st2" d="M1274.4,427.3c0,0,11.3-7.5,18.8,2.3C1293.2,429.6,1284.1,440.7,1274.4,427.3z"></path>
		<ellipse class="st19" cx="1284.3" cy="429.4" rx="3.8" ry="4.5"></ellipse>
		<path class="st2" d="M1319.7,427.3c0,0-11.3-7.5-18.8,2.3C1300.9,429.6,1310,440.7,1319.7,427.3z"></path>
		<path class="st19" d="M1303.9,420.7c0,0,9.9-3.8,17,1c0,0-1.7-6.3-13.3-5.7C1307.6,416,1305.4,417.8,1303.9,420.7z"></path>
		<path class="st19" d="M1291.4,420.7c0,0-9.9-3.8-17,1c0,0,1.7-6.3,13.3-5.7C1287.7,416,1289.9,417.8,1291.4,420.7z"></path>
		<ellipse class="st19" cx="1309.8" cy="429.4" rx="3.8" ry="4.5"></ellipse>
		<path class="st29" d="M1297,428.3l-2.2,16c-0.5,1.9,2,3.2,3.3,1.7c0,0,0,0,0-0.1"></path>
		<path class="st35" d="M1291.4,450.1l11.7-1.5c0,0-2.4,5.8-5.6,6.2S1291.4,450.1,1291.4,450.1z"></path>
		<line class="st29" x1="1264.6" y1="433.9" x2="1271.9" y2="441.3"></line>
		<line class="st29" x1="1329.1" y1="432.6" x2="1322.3" y2="441.3"></line>
		<path class="st36" d="M1266.6,391.6c0,0-0.6,12.1,7.9,13.2"></path>
		<path class="st36" d="M1266.5,377.1c0,0,7.7,26.1,26.7,20.3s24.2-9.5,30.5-4.6c0,0,7.1,8.8,7.1,27.1"></path>
		<path class="st36" d="M1280.6,369.5c0,0-1.3,19.6,14.3,18.3c15.6-1.3,22.6-2.9,30.9,0.8c0,0,9.2,2.7,8.9,20.1"></path>
		<line class="st36" x1="1320.9" y1="397.5" x2="1325.5" y2="386.4"></line>
		<path class="st29" d="M1293.2,429.6c0,0-5.1-9.7-18.8-2.3"></path>
		<path class="st29" d="M1300.9,429.6c0,0,6.3-9.5,18.8-2.3"></path>
		<polygon class="st25" points="1279.9,485.4 1265.3,491.9 1280.6,541.3 1297.5,524.1   "></polygon>
		<polygon class="st25" points="1315.3,485.4 1329.9,491.9 1314.7,541.3 1297.5,524.1   "></polygon>
		<rect x="1202.5" y="639.7" class="st16" width="161.1" height="112.3"></rect>
		<rect x="1263.6" y="513.4" class="st16" width="156.7" height="119"></rect>
		<path class="st34" d="M1449.4,590.2l-26.5-22.7l-36.8-2.7c0,0-2.7,4.6,14.5,10.4l9.4,0.9c0,0-16.2,3.6-20.9,6.3l-9.4,20.5l-7,10.2    c0,0,1.8,2.4,6.8,0l-2.7,5.3c0,0,4.4,2.4,8,0l-3.5,6.8c0,0,3.6,3.2,7.9,0l12.7-15.4c0,0,3.2,4.9,19,8.9    c5.1,1.3,10.7,7.1,17.5,11.8L1449.4,590.2z"></path>
		<g>
			<text transform="matrix(1 0 0 1 1233.9756 734.0586)" class="st18 st30 st31">K</text>
		</g>
		<g>
			<text transform="matrix(1 0 0 1 1286.7539 609.6182)" class="st32 st30 st31">Y</text>
		</g>
		<path class="st34" d="M1188.5,650.2l21.9-18.7l31.1-5.7c0,0,3.6,6.7-11.1,12.8l-6.5,1.8c0,0,15,2.9,20.4,6l9.4,20.5l7,10.2    c0,0-1.8,2.4-6.8,0l2.7,5.3c0,0-4.4,2.4-8,0l3.5,6.8c0,0-3.6,3.2-7.9,0l-12.7-15.4c0,0-3.2,4.9-19,8.9    c-5.1,1.3-10.7,7.1-17.5,11.8L1188.5,650.2z"></path>
		<polygon class="st13" points="1291.6,870.1 1291.6,814 1272.2,987.7   "></polygon>
		<line class="st17" x1="1224.3" y1="796" x2="1172.7" y2="1295.1"></line>
		<line class="st15" x1="1147.4" y1="1296.6" x2="1224.5" y2="1296.6"></line>
		<line class="st17" x1="1247" y1="775.7" x2="1198.6" y2="819"></line>
		<line class="st17" x1="1358.4" y1="787.2" x2="1386.9" y2="811.5"></line>
		<line class="st17" x1="1372.5" y1="799.2" x2="1372.5" y2="1295.1"></line>
		<line class="st15" x1="1316" y1="1297.2" x2="1391.1" y2="1297.2"></line>
		<line class="st14" x1="1281.9" y1="801.6" x2="1291.6" y2="814"></line>
		<polygon class="st13" points="1363.6,752 1205.2,762.2 1206.3,752   "></polygon>
		<line class="st14" x1="1220.5" y1="559.1" x2="1224.3" y2="629"></line>
		<polygon class="st13" points="1194.9,694.6 1189.1,654.3 1198.6,691.8   "></polygon>
		<path class="st37" d="M1253.8,677.1l-11.5-18.8c-1.6-2.6-5-3.5-7.6-2l-4.6,2.5"></path>
		<path class="st37" d="M1248.5,682.4l-9.6-13.1c-1.7-2.2-4.7-3-7.2-1.7l-1.6,0.8"></path>
		<line class="st37" x1="1223.8" y1="640.4" x2="1213.2" y2="643.1"></line>
		<line class="st15" x1="1176.9" y1="657.6" x2="1182.2" y2="718.9"></line>
		<line class="st14" x1="1188.5" y1="650.2" x2="1133.8" y2="684.9"></line>
		<polygon class="st13" points="1449.4,590.2 1433.3,626.8 1438.4,630.6   "></polygon>
		<path class="st37" d="M1379.4,613.1l12.8-21c0,0,2.8-3,6.8-1.9"></path>
		<path class="st37" d="M1384.8,618.5c0,0,12.3-18.8,12.8-18.8c0.5,0,3.5-3,6.2-1"></path>
		<line class="st37" x1="1409.9" y1="576.1" x2="1416.1" y2="576.1"></line>
		<path class="st38" d="M1279.4,370.1c-11.3,1-26.6,5.9-11.1,24.8"></path>
		<rect x="1239.2" y="562" class="st2" width="23.7" height="10.9"></rect>
		<line class="st15" x1="1458.3" y1="601.6" x2="1439.8" y2="653.3"></line>
		<line class="st14" x1="1428" y1="635.7" x2="1449.4" y2="667.5"></line>
		<polygon class="st13" points="1420.2,632.4 1370.7,632.4 1370.7,644.8   "></polygon>
		<path class="st39" d="M1147.4,1341.4c0,0-19.1-36.5-27.3-30.8c-8.2,5.7,27.3,34.5,27.3,34.5"></path>
		<path class="st39" d="M1141.2,1340.9c0,0-39.6-11.5-41.1-1.6s43.8,4.2,43.8,4.2"></path>
		<path class="st39" d="M1373.8,1343.5c0,0,19.1-36.5,27.3-30.8c8.2,5.7-27.3,34.5-27.3,34.5"></path>
		<path class="st39" d="M1380,1343c0,0,39.6-11.5,41.1-1.6c1.6,9.9-43.8,4.2-43.8,4.2"></path>
		<path class="st15" d="M1186,1370.6c0,0,6.4-26.9,25.5-25.5"></path>
		<path class="st15" d="M1328.2,1352.6"></path>
		<line class="st15" x1="1189.6" y1="1360.8" x2="1100" y2="1360.8"></line>
		<line class="st15" x1="1328.2" y1="1360.8" x2="1384.2" y2="1360.8"></line>
		<line class="st14" x1="1373.6" y1="673" x2="1370.7" y2="660.2"></line>
		<line class="st14" x1="1444.5" y1="660.2" x2="1438.7" y2="667.5"></line>
	</g>
	<g>
		<path class="st32" d="M647,437l-0.5-28.8c-0.2-12.3,5.9-24,16.4-30.4c4.4-2.7,9.6-4.5,15.6-4.2c10.7-1.8,42.1,7.4,36.4,46.4    l-1.7,13.6L647,437z"></path>
		
			<rect x="352.7" y="373.7" transform="matrix(-1 -4.491131e-11 4.491131e-11 -1 862.0284 866.403)" class="st16" width="156.7" height="119"></rect>
		<path class="st40" d="M533.3,517l-7.2-49.2l-24.7-27.4c0,0-5.2,1.5,3.3,17.5l4.6,8.6l-1.1,26.3h-26.6c0,0,1.5,2.3,7.5,10.7    c3.1,4.3,2.8,12.5,4.4,20.6L533.3,517z"></path>
		<path class="st20" d="M488.1,522.7l9.3,180.2c-1.5,29.7,58.1,64.2,92.6,5.9l46.2-217.1l-12.2,0.1c-11.7,0-22.1,10-27.6,24.9    c-7.5,20.3-21.4,43.8-44.1,98.1L538.9,516L488.1,522.7z"></path>
		<polygon class="st20" points="663.5,491.9 623.9,491.9 597.9,748 680.9,750.4 682.6,491.9   "></polygon>
		<path class="st20" d="M707.2,491.9h29.7c0,0,28.2,0,53.2,49.4l75.8,158.6c9.2,18.4-3.7,81.4-54.7,61.5l-95.5-66.8l5.5-53.8    L707.2,491.9z"></path>
		<polygon class="st20" points="699.9,491.9 734.7,491.9 769.1,691.6 772.7,750.4 680.9,750.4 682.6,491.9   "></polygon>
		<path class="st19" d="M767.7,1314.3v55.6h129.2c0,0,0.9-10.1-16.8-13s-50.9-12.7-68.2-42.6H767.7z"></path>
		<path class="st19" d="M632.2,1314.8v55.6H527c0,0-0.9-10.1,16.8-13s18.5-12.7,35.8-42.6H632.2z"></path>
		<path class="st32" d="M772.7,750.4l61.1,564.8h-81.5c0,0-21.7-141-25.3-205.2c-11-66.9-39.5-240-39.5-240l-44.3,444.3h-76.3    c0,0,14.6-470.7,31-566.3L772.7,750.4z"></path>
		<path class="st40" d="M664.7,482V458l16.9-1.1l16.9,1.1V482c0,0-1.5,8.1,13.3,9.8c0,0-19.4,23.1-30.2,32.2    c-12.9-6.9-31.7-31.1-31.7-31.1C664.8,491.2,664.7,482,664.7,482z"></path>
		<path class="st19" d="M698.6,458c0,0-7.9,9.9-18.1,8.4c-10.3-1.5-15.1-8.5-15.1-8.5s3.4,14.2,16.4,15.1c11,0.8,16.9-5.1,16.9-5.1    V458z"></path>
		<path class="st40" d="M709.4,427.7c-3.8,38.4-26.3,40-26.3,40c-30.9,0-29.7-46.9-29.7-46.9s-0.9-4.8,1-12    c6.3,3.5,14.9,0.6,17.8-8.1c2,7.1,9.1,6.5,10.5,2.7c1.7,3.2,9.3,5.7,11.4,0.8c0.2,5,7.9,9.3,11.7,6.1    C706.9,420.3,707.9,421.3,709.4,427.7z"></path>
		<path class="st40" d="M653.7,427.7c0,0-4.2-2.9-7.6,0c-3.3,2.9-2.4,18.1,13.8,20.9L653.7,427.7z"></path>
		<path class="st40" d="M709.4,427.7c0,0,4.2-2.9,7.6,0c3.3,2.9,2.4,18.1-13.8,20.9L709.4,427.7z"></path>
		<path class="st2" d="M704.7,427.3c0,0-11.3-7.5-18.8,2.3C685.9,429.6,695,440.7,704.7,427.3z"></path>
		<ellipse class="st19" cx="694.8" cy="429.4" rx="3.8" ry="4.5"></ellipse>
		<path class="st2" d="M659.4,427.3c0,0,11.3-7.5,18.8,2.3C678.2,429.6,669.1,440.7,659.4,427.3z"></path>
		<path class="st19" d="M675.4,419.7c0,0-10.3-2.6-16.7,3c0,0,0.9-6.4,12.5-7.3C671.2,415.4,673.6,417,675.4,419.7z"></path>
		<path class="st19" d="M687.7,420.4c0,0,10.1-3.4,16.9,1.7c0,0-1.4-6.3-13-6.3C691.6,415.8,689.2,417.5,687.7,420.4z"></path>
		<ellipse class="st19" cx="669.3" cy="429.4" rx="3.8" ry="4.5"></ellipse>
		<path class="st29" d="M682.1,428.3l2.2,16c0.5,1.9-2,3.2-3.3,1.7c0,0,0,0,0-0.1"></path>
		<line class="st29" x1="714.6" y1="433.9" x2="707.2" y2="441.3"></line>
		<line class="st29" x1="650" y1="432.6" x2="656.9" y2="441.3"></line>
		<path class="st29" d="M685.9,429.6c0,0,5.1-9.7,18.8-2.3"></path>
		<path class="st29" d="M678.2,429.6c0,0-6.3-9.5-18.8-2.3"></path>
		<polygon class="st32" points="699.2,485.4 713.8,491.9 698.6,541.3 681.7,524.1   "></polygon>
		<polygon class="st32" points="663.9,485.4 649.2,491.9 664.5,541.3 681.7,524.1   "></polygon>
		
			<rect x="558.3" y="604.1" transform="matrix(-1 -4.494417e-11 4.494417e-11 -1 1264.4196 1320.4469)" class="st16" width="147.7" height="112.3"></rect>
		<text transform="matrix(1 0 0 1 390.0928 473.1074)" class="st32 st30 st31">T</text>
		<text transform="matrix(1 0 0 1 574.5566 698.4834)" class="st18 st30 st31">H</text>
		<path class="st40" d="M719.8,631.6l-13.5-2.5v11.3c0,0-15,2.9-20.4,6l-9.4,20.5l-7,10.2c0,0,1.8,2.4,6.8,0l-2.7,5.3    c0,0,4.4,2.4,8,0l-3.5,6.8c0,0,3.6,3.2,7.9,0l12.7-15.4c0,0,3.2,4.9,19,8.9c5.1,1.3,10.7,7.1,17.5,11.8l6.4-44.4L719.8,631.6z"></path>
		<path class="st19" d="M673.1,447.7l7.8,3.5c0,0-3.4,2.6-5.5,1.4S673.1,447.7,673.1,447.7z"></path>
		<polygon class="st19" points="533.3,517 492.5,516.6 493.3,522   "></polygon>
		<line class="st15" x1="488.8" y1="536.9" x2="540.9" y2="530.8"></line>
		<path class="st19" d="M741.6,650.3l-12.2,39.9c0,0,3.9,3.2,5.9,4.4C735.6,691.9,741.6,650.3,741.6,650.3z"></path>
		<line class="st17" x1="741.6" y1="650.3" x2="795.7" y2="677.4"></line>
		<line class="st17" x1="732.4" y1="702.5" x2="772.1" y2="734.1"></line>
		<polygon class="st19" points="772.7,750.4 596.9,757 597.9,748   "></polygon>
		<line class="st17" x1="613.7" y1="604.5" x2="615.4" y2="543"></line>
		<polygon class="st13" points="687.5,870.1 687.5,823.5 707.9,993.6   "></polygon>
		<line class="st17" x1="624.4" y1="813.5" x2="587.7" y2="853"></line>
		<line class="st17" x1="606.1" y1="833.2" x2="580.6" y2="1296.4"></line>
		<line class="st17" x1="752.2" y1="803.4" x2="782.5" y2="841.3"></line>
		<line class="st17" x1="767.4" y1="822.3" x2="820.3" y2="1314.3"></line>
		<polygon class="st13" points="706.1,716.4 599.4,728.5 601.1,716.4   "></polygon>
		<polyline class="st37" points="676.3,677.1 688.4,656.4 694.3,653.5   "></polyline>
		<polyline class="st37" points="681.7,682.5 693.5,663.8 700.7,661.8   "></polyline>
		<line class="st15" x1="756.3" y1="657.6" x2="744.4" y2="711.3"></line>
		<line class="st17" x1="552.2" y1="614.8" x2="543.3" y2="632.3"></line>
		<polyline class="st17" points="741.6,554.1 735.5,581.9 775.8,667.4   "></polyline>
		<polygon class="st12" points="697.7,604.5 690.2,548.8 695.8,538.5 681.7,524.1 667.3,538.5 672.5,548.8 667.3,604.5   "></polygon>
		<line class="st17" x1="672.5" y1="548.8" x2="690.2" y2="548.8"></line>
		<line class="st17" x1="687.5" y1="823.5" x2="705.6" y2="809"></line>
		<line class="st41" x1="570.5" y1="1296.4" x2="645" y2="1296.4"></line>
		<line class="st41" x1="749.7" y1="1296.4" x2="824.2" y2="1296.4"></line>
		<path class="st39" d="M569.4,1333.4c0,0-23.7-38.6-28.4-29.1C536.2,1313.8,569.4,1333.4,569.4,1333.4z"></path>
		<path class="st39" d="M569.4,1333.1c0,0-41.2-18.8-39.8-8.2S569.4,1333.1,569.4,1333.1z"></path>
		<path class="st39" d="M820.3,1333.4c0,0,23.7-38.6,28.4-29.1C853.5,1313.8,820.3,1333.4,820.3,1333.4z"></path>
		<path class="st39" d="M820.3,1333.1c0,0,41.2-18.8,39.8-8.2S820.3,1333.1,820.3,1333.1z"></path>
		<line class="st41" x1="540.5" y1="1358.1" x2="626.1" y2="1358.1"></line>
		<line class="st41" x1="783.7" y1="1358.1" x2="882.8" y2="1358.1"></line>
		<rect x="623.5" y="568" class="st2" width="42.1" height="9.7"></rect>
		<polyline class="st17" points="509.3,466.4 508.2,492.7 481.6,492.7   "></polyline>
		<path class="st17" d="M508.2,492.7c0,0,0.3,4.3,4.7,5.1"></path>
		<path class="st15" d="M767.4,1349.8c0,0,19.2-1.1,19.6,20.8"></path>
		<path class="st41" d="M632.2,1349.8c0,0-8,5-9,21.6"></path>
	</g>
	<g>
		<path class="st42" d="M932.2,383.1c0,0,3.1,16.4,19.7,19.8"></path>
		<path class="st42" d="M956.7,403.5c0,0,26.9-7.7,21.2-25.8"></path>
		
			<ellipse transform="matrix(1.259060e-02 -0.9999 0.9999 1.259060e-02 491.4422 1395.344)" class="st35" cx="952.2" cy="448.8" rx="43.9" ry="38.8"></ellipse>
		<path class="st24" d="M912.3,1200l-16.5,138.1l-102.7,22.7l10.8-12l32.4-12.5c10.6-4.1,17.8-14.1,18.4-25.4L850,1200H912.3z"></path>
		<path class="st32" d="M890.9,1330.5c-6,4.2-33.3,21.2-83,21.2c0,0-5.4-0.7-3.9-2.9c0,0-37.1,12.1-41.1,21.1h68.6l27.9-9.6l1.1,9.6    h31l6.5-34.9c0.5-2.4-1.1-4.8-3.5-5.2c-0.1,0-0.1,0-0.2,0C893,1329.5,891.8,1329.8,890.9,1330.5z"></path>
		<path class="st24" d="M954.9,1200l15,138.1l93.5,22.7l-9.8-12l-29.5-12.5c-9.7-4.1-16.2-14.1-16.7-25.4l4.3-110.9H954.9z"></path>
		<path class="st19" d="M892.9,1238c5-0.2,10-0.5,15-0.7l4.5-37.3H850l1.7,40.2C865.5,1239.4,879.2,1238.6,892.9,1238z"></path>
		<path class="st19" d="M1002.8,1220.7c2.8-1.3,5.5-2.6,8.1-4l0.7-16.7h-56.7l3.5,32.6C973.6,1230,988.5,1226.3,1002.8,1220.7z"></path>
		<path class="st32" d="M974.4,1330.5c5.5,4.2,30.3,21.2,75.5,21.2c0,0,4.9-0.7,3.6-2.9c0,0,33.8,12.1,37.4,21.1h-62.4l-25.4-9.6    l-1,9.6h-28.2L968,1335c-0.4-2.4,1-4.8,3.2-5.2c0.1,0,0.1,0,0.2,0C972.4,1329.5,973.5,1329.8,974.4,1330.5z"></path>
		<g>
			<defs>
				<path id="XMLID_1_" d="M867.3,743.2c0,0-16.1,13.9-21.1,59.5s2.2,99.2,2.2,176.2c0,70.2-20.6,236.7-20.6,236.7      s97.2,24.6,201.7-4.9c0,0-12.7-231.1-14-478.2L867.3,743.2z"></path>
			</defs>
			<use xlink:href="#XMLID_1_" style="overflow:visible;fill:#F97988;"></use>
			<clipPath id="XMLID_6_">
				<use xlink:href="#XMLID_1_" style="overflow:visible;"></use>
			</clipPath>
			<line class="st43" x1="1029.4" y1="729.2" x2="835.5" y2="953.9"></line>
			<line class="st43" x1="978.1" y1="674.8" x2="784.2" y2="899.5"></line>
			<line class="st43" x1="1033" y1="833.2" x2="839.1" y2="1057.9"></line>
			<line class="st43" x1="1036.6" y1="937.2" x2="807.5" y2="1202.6"></line>
			<line class="st43" x1="1040.1" y1="1041.1" x2="846.2" y2="1265.8"></line>
			<line class="st43" x1="849.3" y1="729.2" x2="1043.2" y2="953.9"></line>
			<line class="st43" x1="845.7" y1="833.2" x2="1039.6" y2="1057.9"></line>
			<line class="st43" x1="842.1" y1="937.2" x2="1071.2" y2="1202.6"></line>
			<line class="st43" x1="838.6" y1="1041.1" x2="1032.5" y2="1265.8"></line>
			<line class="st43" x1="791.8" y1="1090.3" x2="985.7" y2="1315"></line>
		</g>
		<path class="st18" d="M936,518.5c0,0-12.4-2-20.2-3.4c-18.7-3.4-47,6.3-59.2,24c-18.6,27-38.9,58.8-38.9,58.8l-79.3,122.6    c-12.3,17.4,9.4,64.9,47.6,39.5l35.2-27.4l75.5-63l-47.1,8.7L936,518.5z"></path>
		<path class="st18" d="M969.8,518.5c0,0,19.5-3.6,35.5,0.4c20.7,5.2,31.2,31.3,43.2,63l36.1,59.5l98.2-103.2l41.5,23l-114.5,171.3    c-22.3,27.9-64.3,7.7-84-36.7c-15.7-26.9-15.3-38.2-29.8-66.3l5.3,118.1L827.7,701l5.7-47.4L936,518.5H969.8z"></path>
		<rect x="848.3" y="677.4" class="st16" width="173.3" height="131.7"></rect>
		<path class="st24" d="M810.2,692.2l26.5-22.7l51.8-14.5c0,0,3,7.1-14.2,12.8l-23.7,12.8c0,0,15.3,1.2,19.9,3.9l9.4,20.5l7,10.2    c0,0-1.8,2.4-6.8,0l2.7,5.3c0,0-4.4,2.4-8,0l3.5,6.8c0,0-3.6,3.2-7.9,0l-12.7-15.4c0,0-3.2,4.9-19,8.9    c-5.1,1.3-10.7,7.1-17.5,11.8L810.2,692.2z"></path>
		<path class="st24" d="M977.4,443.7c0,0,6.3,57-25.2,56c-29.8-0.9-25.5-51.1-25.5-51.1s13.9-1,25.5-15.6    C959.5,443.7,968,444.9,977.4,443.7z"></path>
		<path class="st24" d="M973.1,463.5c0,0,5.3-11.7,11.4-9.4c6.1,2.3,3.2,22.1-11.7,22L973.1,463.5z"></path>
		<path class="st24" d="M930.3,463.5c0,0-5.3-11.7-11.4-9.4c-6.1,2.3-3.2,22.1,11.7,22L930.3,463.5z"></path>
		<path class="st24" d="M952.9,535.4L952.9,535.4c-9.3,0-16.9-7.6-16.9-16.9v-35.6h33.8v35.6C969.8,527.8,962.3,535.4,952.9,535.4z"></path>
		<polygon class="st44" points="936,511.7 926.5,517.8 931.4,555.8 952.9,535.4   "></polygon>
		<polygon class="st44" points="952.9,535.4 972.8,554.1 980.7,516.1 969.8,511.7   "></polygon>
		<path class="st13" d="M936,491.7c0,0,6.8,9.4,16.2,7.9c0,0-6.9,3.8-16.2-1.9V491.7z"></path>
		<path class="st2" d="M930.5,458.3c0,0,13-3.8,16.1,8.8C946.6,467.2,936,472.3,930.5,458.3z"></path>
		<path class="st2" d="M972.8,458.3c0,0-13-3.8-16.1,8.8C956.7,467.2,967.4,472.3,972.8,458.3z"></path>
		<ellipse class="st13" cx="939.3" cy="463.1" rx="3.2" ry="4.6"></ellipse>
		<ellipse class="st13" cx="964.8" cy="463" rx="3.2" ry="4.6"></ellipse>
		<path class="st29" d="M946.6,467.2c0,0-3.2-12.5-16.1-8.8"></path>
		<path class="st29" d="M956.7,467.2c0,0,3.2-12.5,16.1-8.8"></path>
		<line class="st29" x1="921.3" y1="461.2" x2="926.5" y2="467.6"></line>
		<line class="st29" x1="980.7" y1="461.2" x2="977.3" y2="467.6"></line>
		<path class="st29" d="M950.9,468.6c0,0,5.5-0.9,2,5.9"></path>
		<path class="st13" d="M932.1,453.4c4.8-3,8.8-1.8,11.2-0.5c0.9,0.5,2.1-0.4,1.6-1.4c-0.4-1-1.2-2-2.5-2.3    c-7.4-1.8-10.8,4.4-10.8,4.4"></path>
		<path class="st13" d="M973.1,453.4c-4.8-3-8.8-1.8-11.2-0.5c-0.9,0.5-2.1-0.4-1.6-1.4c0.4-1,1.2-2,2.5-2.3    c7.4-1.8,10.8,4.4,10.8,4.4"></path>
		<path class="st17" d="M880.2,715.1L868.6,697c-1.3-2.1-3.5-3.5-5.9-3.9l-5.3-0.9"></path>
		<path class="st17" d="M874.8,720.4l-10.8-15.3c-1.3-1.9-3.4-3.2-5.7-3.6l-1.8-0.3"></path>
		<line class="st17" x1="857.7" y1="711.8" x2="859.5" y2="710.8"></line>
		<line class="st17" x1="850.7" y1="680.5" x2="842" y2="680.5"></line>
		<circle class="st2" cx="951.7" cy="561.2" r="3.6"></circle>
		<circle class="st2" cx="951.4" cy="585.6" r="3.6"></circle>
		<circle class="st2" cx="951.2" cy="609.9" r="3.6"></circle>
		<rect x="1018.1" y="414.4" class="st16" width="173.3" height="131.7"></rect>
		<path class="st24" d="M1222.4,509l-8-23.3l-37.3-38.9c0,0-7.8,4.8,5.7,18.2l13.9,23c0,0-13.7-6.8-19.1-6.8l-18.5,12.9l-11.2,5.2    c0,0,0.3,2.9,5.9,3.5l-5,3.2c0,0,2.6,4.3,6.9,4.1l-6.4,4.1c0,0,1.4,4.6,6.8,4l18.8-6.8c0,0,9,20.2,16.5,31.6    c8.7,4.2,12.2,7.2,23.1,12.7l8.7-27.2C1224.8,522.1,1224.6,515.3,1222.4,509z"></path>
		<polygon class="st13" points="871,660.6 871,591.2 874.8,660.2   "></polygon>
		<polygon class="st13" points="996,629.6 996,594.1 1005.5,650.2   "></polygon>
		<path class="st29" d="M944.2,477c0,0,0.8,6.7,5.4,5.9"></path>
		<path class="st35" d="M951.9,402.9c0,0-7.1-2.5-16.6-12c-9.5-9.5,3.4-25.2,25.5-23.2c25,2.3,18.1,17.9,8.4,26.9    C962.2,401.2,957.1,405.6,951.9,402.9z"></path>
		<text transform="matrix(1 0 0 1 888.7725 793.7764)" class="st20 st30 st31">A</text>
		<text transform="matrix(1 0 0 1 1048.1318 517.9492)" class="st25 st30 st31">N</text>
		<line class="st17" x1="810.2" y1="692.2" x2="793.8" y2="703.6"></line>
		<polygon class="st13" points="1016.1,809 848.3,809 1016.1,819   "></polygon>
		<path class="st15" d="M830.8,1189.8c0,0,109.9,31,197.4-3.4"></path>
		<rect x="884.5" y="589.2" class="st2" width="42.1" height="9.7"></rect>
		<polygon class="st13" points="1191.4,543.1 1216.6,549.1 1214.5,555.8   "></polygon>
		<line class="st17" x1="1084.6" y1="641.5" x2="1070.7" y2="660.6"></line>
		<line class="st41" x1="799.5" y1="698.5" x2="807.6" y2="743.2"></line>
		<line class="st41" x1="1167.6" y1="554.1" x2="1213.2" y2="577.7"></line>
		<polygon class="st13" points="821.3,732.6 811.4,696.6 825,729.8   "></polygon>
		<path class="st29" d="M916.8,431.1c27.4,0.6,35.2-10.9,35.2-10.9s6.6,16.4,36.8,13.6"></path>
		<path class="st29" d="M914.9,436.9c0,0,26.8,11.8,37.3-11.2c0,0,10.8,19.4,38,15.8"></path>
		<path class="st42" d="M952,430.5c0,0-0.9,16.5-25.2,18.2"></path>
		<path class="st29" d="M923.9,417.6c0,0,13.6,12,28.1-3.1c0,0,12.3,14,28.7,3.8"></path>
		<line class="st29" x1="952.2" y1="433" x2="952.2" y2="405.7"></line>
		<path class="st29" d="M940.4,371.8c0,0-1.5,20,13.9,31.7"></path>
		<line class="st29" x1="955.1" y1="401.7" x2="952.8" y2="367.8"></line>
		<path class="st29" d="M955.8,401.7c0,0,18.6-14.7,14-32.2"></path>
		<path class="st45" d="M945.1,405.2c5.3-2.2,13.4-1.9,18.5,1.2"></path>
		<line class="st17" x1="996" y1="657.6" x2="987.5" y2="657.6"></line>
		<path class="st17" d="M1186.1,613.6l-76.3,119c0,0-7.6,14.8-23,12.7"></path>
	</g>
	<g class="st10">
		
			<rect x="503.2" y="256.9" transform="matrix(-1 -1.224647e-16 1.224647e-16 -1 1083.3706 540.6046)" class="st11" width="77" height="26.8"></rect>
		
			<rect x="426.2" y="256.9" transform="matrix(-1 -1.224647e-16 1.224647e-16 -1 929.421 540.6046)" class="st11" width="77" height="26.8"></rect>
		<polyline class="st11" points="464.7,310.5 464.7,283.7 541.7,283.7 541.7,310.5   "></polyline>
		<line class="st11" x1="426.2" y1="310.5" x2="503.2" y2="310.5"></line>
		<polyline class="st11" points="463.9,230.1 463.9,256.9 540.8,256.9 540.8,230.1   "></polyline>
		<line class="st11" x1="502.3" y1="230.1" x2="579.3" y2="230.1"></line>
	</g>
	<g>
		<g>
			<line class="st46" x1="426.2" y1="768.4" x2="429.3" y2="642.3"></line>
			<path class="st46" d="M427.8,702.6c0,0-3.5-16.1-13.7-25.5"></path>
			<path class="st46" d="M431.2,737.4c0,0,4-22.5,14.6-28.5"></path>
			<line class="st46" x1="431.7" y1="686.7" x2="431.2" y2="769.5"></line>
			<path class="st47" d="M429.3,648.4c0,0,4.7-50.7-8.2-44.8C412,607.7,429.3,648.4,429.3,648.4z"></path>
			<path class="st18" d="M435.3,631.9c0,0,5.6-24.8,10.8-20.1C449.8,615.2,435.3,631.9,435.3,631.9z"></path>
			<path class="st18" d="M416.8,701.7c0,0-9.5-23.6-13.9-18.1C399.8,687.6,416.8,701.7,416.8,701.7z"></path>
			<path class="st18" d="M427.8,672.7c0,0-12.6-57.9-28.7-45.1C392.6,632.7,419,658.9,427.8,672.7z"></path>
			<path class="st18" d="M431.2,694.7c0,0,0-62.9,17.5-52C456.6,647.6,437.9,671.6,431.2,694.7z"></path>
			<path class="st47" d="M431.2,705.5c0,0,20.7-51.9,33.7-40.6C471,670.3,453.3,676.8,431.2,705.5z"></path>
			<path class="st18" d="M427.1,736.6c0,0-20.7-51.9-33.7-40.6C387.2,701.3,405,707.9,427.1,736.6z"></path>
			<path class="st47" d="M416.9,680c0,0-33.2-42.1-40.6-30.9C371.7,656.1,400.2,669,416.9,680z"></path>
			<path class="st18" d="M440.3,713.1c0,0,33.2-41.2,40.6-30C485.4,690,457,702,440.3,713.1z"></path>
			<line class="st48" x1="470.4" y1="689.8" x2="453.3" y2="702.6"></line>
			<line class="st48" x1="443.2" y1="650.1" x2="435.3" y2="673.4"></line>
			<path class="st48" d="M458.8,669.9c0,0-11,10.7-15.7,16.9"></path>
			<path class="st48" d="M399.7,701.7c0,0,8.6,3.8,17.2,20"></path>
			<path class="st48" d="M384.4,654.4c0,0,12.8,5.9,19.2,13.6"></path>
			<path class="st48" d="M405.9,632.8c0,0,10,11.9,15,26.2"></path>
			<path class="st48" d="M422.7,608.6c0,0,5.1,12.7,5.1,24.2"></path>
		</g>
		<g>
			<defs>
				<path id="XMLID_3_" d="M457.5,831.4c-16.1-24.2-20.7-64.1-20.7-64.1h-8h-8c0,0-4.6,39.9-20.7,64.1      c-16.1,24.2-19.8,64.5-6.6,88.6h35.3h35.3C477.3,895.8,473.6,855.5,457.5,831.4z"></path>
			</defs>
			<use xlink:href="#XMLID_3_" style="overflow:visible;fill:#FFFFFF;"></use>
			<clipPath id="XMLID_7_">
				<use xlink:href="#XMLID_3_" style="overflow:visible;"></use>
			</clipPath>
			
				<rect x="355" y="848.1" transform="matrix(0.9845 0.1756 -0.1756 0.9845 157.4603 -64.0075)" class="st49" width="170.8" height="19.4"></rect>
			
				<rect x="343.4" y="872" transform="matrix(0.9845 0.1756 -0.1756 0.9845 160.4059 -61.6899)" class="st49" width="170.8" height="7.1"></rect>
			
				<use xlink:href="#XMLID_3_" style="overflow:visible;fill:none;stroke:#2D100A;stroke-width:1.1467;stroke-linecap:round;stroke-linejoin:round;stroke-miterlimit:10;"></use>
		</g>
		<polygon class="st13" points="393.4,920 390.1,912.7 464.1,920   "></polygon>
		<polygon class="st13" points="436.8,767.2 419.9,772.9 420.7,767.2   "></polygon>
	</g>
	<g>
		<path class="st32" d="M1823.6,962.6c0,0-18.9,31.3-70.1,36.1c0,0-31.3-1.1-32.4,27h201.2c0,0,62.9-34,61-112.1    c-0.5-21.5-12.8-41.4-32.4-50.3c-13.4-6.1-30.8-7.6-50.8,5.5C1862.4,893.2,1861.9,924.7,1823.6,962.6z"></path>
		<path class="st15" d="M1981.2,899.5c-5.3-6.9-12.2-12.5-20.4-16.2c-13.4-6.1-30.8-7.6-50.8,5.5c-37.7,24.5-38.2,56-76.5,93.9    c0,0-18.9,31.3-70.1,36.1c0,0-13.2-0.5-22.8,6.9"></path>
		<rect x="1775.7" y="1025.7" class="st13" width="117.4" height="8"></rect>
		<line class="st14" x1="1834.4" y1="1033.7" x2="1834.4" y2="1312.2"></line>
		<path class="st13" d="M1834.4,1297.2c0,0-17.7,63.7-58.7,73.4h58.7V1297.2z"></path>
		<path class="st13" d="M1834.4,1297.2c0,0,17.7,63.7,58.7,73.4h-58.7V1297.2z"></path>
	</g>
	<path class="st4" d="M555.9,919.4"></path>
	<rect x="1148.6" y="226.2" class="st0" width="757" height="19"></rect>
</g>
</svg>